<svg width="283" height="93" fill="none" xmlns="http://www.w3.org/2000/svg"><path d="M9.144 51.494A30.858 30.858 0 0 1 5 36C5 18.88 18.88 5 36 5c11.072 0 20.787 5.804 26.271 14.535a82.88 82.88 0 0 1 5.064-1.27C61.15 7.358 49.434 0 36 0 16.118 0 0 16.118 0 36a35.832 35.832 0 0 0 5.378 18.938c1.232-1.151 2.488-2.3 3.766-3.444z" fill="#fff"/><path d="M46.63 25.53L42.578 14.6c-.282-.78-.524-1.241-.726-1.384-.202-.144-.716-.216-1.542-.216H34l-6.332 6.332-8.917 24.042c4.644-3.69 9.512-7.211 14.567-10.418L36 24.5l1.814 5.718a123.71 123.71 0 0 1 8.817-4.688zM67 36c0 17.12-13.88 31-31 31-10 0-18.894-4.735-24.562-12.085a240.69 240.69 0 0 0-3.694 3.395C14.338 66.649 24.544 72 36 72c19.882 0 36-16.118 36-36 0-4.95-.999-9.666-2.806-13.959-1.656.337-3.304.73-4.944 1.177A30.887 30.887 0 0 1 67 36z" fill="#fff"/><path d="M40.6 39h-9.053c-5.442 3.701-10.666 7.76-15.618 11.98l-.566 1.528c-.242.636-.363 1.077-.363 1.323 0 .43.151.738.454.923.302.164.836.246 1.602.246h7.166c.827 0 1.341-.072 1.543-.215.201-.144.443-.605.725-1.385l2.087-5.723h14.846L45.51 53.4c.282.78.524 1.241.725 1.385.202.143.716.215 1.543.215h7.166c.766 0 1.3-.082 1.602-.246.303-.185.454-.492.454-.923 0-.246-.121-.687-.363-1.323L48.055 29.37a120.962 120.962 0 0 0-8.976 4.835L40.6 39zm110.734 5.966c2.436 0 4.524-1.044 6.032-2.088.812-.58 1.566-.754 2.088 0l4.756 6.96c.58.812.464 1.276-.406 1.856-3.074 2.204-7.25 3.944-12.47 3.944-12.296 0-22.272-9.976-22.272-22.272 0-12.296 9.976-22.098 22.272-22.098 5.22 0 9.396 1.798 12.586 4.06.58.406.638 1.102.406 1.508l-5.046 7.25c-.464.58-1.218.522-1.798 0-1.914-1.508-3.77-2.146-6.148-2.146-6.438 0-11.252 4.988-11.252 11.426s4.814 11.6 11.252 11.6z" fill="#fff"/><path fill-rule="evenodd" clip-rule="evenodd" d="M98.32 47.563h15.313l2.156 5.812c.292.792.542 1.26.75 1.406.208.146.74.219 1.594.219h7.406c.792 0 1.344-.083 1.656-.25.313-.188.469-.5.469-.938 0-.25-.125-.697-.375-1.343l-14.531-38.5c-.292-.792-.542-1.26-.75-1.406-.209-.146-.74-.22-1.594-.22h-8.625c-.792 0-1.302.063-1.531.188-.229.104-.438.406-.625.906a15.35 15.35 0 0 1-.188.532l-14.812 38.5c-.25.666-.375 1.114-.375 1.343 0 .438.156.75.468.938.313.167.865.25 1.657.25h7.28c.855 0 1.386-.073 1.595-.219.208-.146.468-.604.78-1.375l2.282-5.843zm7.719-22.032l4.594 13.594h-9.25l4.656-13.594z" fill="#fff"/><path d="M189.824 21.719v31.156c0 .938-.125 1.531-.375 1.781-.229.23-.812.344-1.75.344h-6.843c-.938 0-1.532-.115-1.782-.344-.229-.25-.343-.843-.343-1.781V21.719h-6.907c-.937 0-1.531-.115-1.781-.344-.229-.25-.344-.844-.344-1.781v-5.125c0-.938.115-1.521.344-1.75.25-.25.844-.375 1.781-.375h25.063c.937 0 1.521.125 1.75.375.25.229.375.812.375 1.75v5.125c0 .937-.125 1.531-.375 1.781-.229.23-.813.344-1.75.344h-7.063zm27.748 13.719v-20.97c0-.937-.125-1.52-.375-1.75-.229-.25-.813-.374-1.75-.374h-6.844c-.937 0-1.531.125-1.781.375-.229.229-.344.812-.344 1.75v22.468c0 4.459.531 7.917 1.594 10.376 1.083 2.458 2.948 4.458 5.594 6 3.145 1.854 6.864 2.78 11.156 2.78 3.771 0 7.062-.729 9.875-2.187 3.271-1.708 5.729-4.229 7.375-7.562 1.083-2.188 1.625-5.323 1.625-9.407V14.47c0-.938-.125-1.521-.375-1.75-.229-.25-.813-.375-1.75-.375h-6.844c-.937 0-1.531.125-1.781.375-.229.229-.344.812-.344 1.75v20.968c0 2.23-.073 3.813-.219 4.75a8.045 8.045 0 0 1-.906 2.657c-.583 1.062-1.469 1.906-2.656 2.531-1.167.625-2.448.938-3.844.938-2.854 0-4.917-1.084-6.187-3.25-.542-.896-.886-1.782-1.032-2.657-.125-.875-.187-2.531-.187-4.968zm61.969-18.75l-2.407 4.687c-.312.625-.562 1.031-.75 1.219-.187.166-.448.25-.781.25-.187 0-1.323-.573-3.406-1.719-.75-.396-1.865-.594-3.344-.594-1.562 0-2.781.427-3.656 1.282-.729.729-1.094 1.541-1.094 2.437 0 .833.333 1.531 1 2.094.625.52 1.271.916 1.938 1.187.666.271 2.239.771 4.718 1.5 3.521 1.042 6.115 2.459 7.782 4.25 1.791 1.938 2.687 4.51 2.687 7.719 0 4.896-1.458 8.604-4.375 11.125-3.125 2.667-7.229 4-12.312 4-2.25 0-4.678-.386-7.282-1.156-2.583-.792-4.729-1.782-6.437-2.969-.459-.313-.688-.698-.688-1.156 0-.188.188-.636.563-1.344l2.687-5.031c.334-.625.584-1.021.75-1.188.188-.166.448-.25.782-.25.208 0 .427.073.656.219.229.146.958.646 2.187 1.5 1.854 1.292 4.052 1.938 6.594 1.938 1.917 0 3.323-.511 4.219-1.532.708-.812 1.062-1.677 1.062-2.593 0-1.188-.458-2.115-1.375-2.782-.916-.687-2.677-1.416-5.281-2.187-4.083-1.188-6.792-2.334-8.125-3.438-2.25-1.854-3.375-4.666-3.375-8.437 0-4.459 1.469-8.032 4.406-10.719 2.667-2.458 5.969-3.688 9.907-3.688 2.062 0 4.312.282 6.75.844 2.458.563 4.416 1.24 5.875 2.031.458.271.687.636.687 1.094 0 .23-.187.698-.562 1.406z" fill="#fff"/><path fill-rule="evenodd" clip-rule="evenodd" d="M92.47 77.095c-.814-1.012-1.96-1.518-3.436-1.518-1.558 0-2.734.56-3.527 1.682h-.082c.055-.69.082-1.47.082-2.338v-3.876h-1.702V87h1.22l.359-1.446h.123c.41.56.916.978 1.517 1.251.609.267 1.279.4 2.01.4 1.463 0 2.605-.51 3.425-1.528.827-1.025 1.24-2.46 1.24-4.306s-.41-3.271-1.23-4.276zm-6.194.912c.513-.67 1.35-1.005 2.512-1.005 1.073 0 1.866.36 2.379 1.077.513.718.769 1.808.769 3.271 0 1.429-.256 2.526-.769 3.292-.513.758-1.292 1.138-2.338 1.138-1.162 0-2.006-.339-2.533-1.015-.526-.684-.79-1.815-.79-3.394 0-1.58.257-2.7.77-3.364z" fill="#fff"/><path d="M96.725 75.762h-1.826l4.533 11.3-.626 1.6c-.499 1.312-1.333 1.968-2.502 1.968-.465 0-.885-.041-1.261-.123v1.364a6.848 6.848 0 0 0 1.538.174c.93 0 1.712-.267 2.348-.8.643-.526 1.203-1.422 1.682-2.686l4.829-12.797h-1.825c-1.572 4.347-2.502 6.945-2.789 7.793-.28.84-.465 1.435-.554 1.784h-.082c-.129-.65-.464-1.706-1.004-3.169l-2.461-6.408zm24.712 7.249c0 1.32-.479 2.348-1.436 3.087-.957.738-2.256 1.107-3.897 1.107-1.777 0-3.144-.229-4.101-.687v-1.682c.615.26 1.285.465 2.01.616.724.15 1.442.225 2.153.225 1.162 0 2.037-.219 2.625-.656.588-.444.882-1.06.882-1.846 0-.52-.106-.943-.318-1.271-.205-.335-.554-.643-1.046-.923-.485-.28-1.227-.598-2.225-.954-1.395-.499-2.393-1.09-2.994-1.774-.595-.683-.892-1.575-.892-2.676 0-1.155.434-2.075 1.302-2.758.868-.684 2.017-1.026 3.445-1.026 1.491 0 2.861.274 4.112.82l-.543 1.518c-1.238-.52-2.441-.779-3.61-.779-.923 0-1.644.198-2.163.595-.52.396-.78.947-.78 1.65 0 .52.096.947.288 1.282.191.328.512.633.963.913.458.273 1.156.578 2.092.913 1.572.56 2.653 1.162 3.24 1.804.595.643.893 1.477.893 2.502zM124.246 87h1.702V75.762h-1.702V87zm.144-15.135c-.192.178-.287.462-.287.851 0 .383.095.67.287.862a.99.99 0 0 0 .717.276c.274 0 .51-.092.708-.276.198-.192.297-.479.297-.862 0-.382-.099-.666-.297-.85a1.003 1.003 0 0 0-.708-.278.99.99 0 0 0-.717.277z" fill="#fff"/><path fill-rule="evenodd" clip-rule="evenodd" d="M137.207 85.493h-.092c-.786 1.141-1.962 1.712-3.528 1.712-1.469 0-2.614-.502-3.435-1.507-.813-1.005-1.22-2.434-1.22-4.286 0-1.853.41-3.292 1.231-4.317.82-1.026 1.962-1.538 3.424-1.538 1.525 0 2.694.553 3.507 1.66h.134l-.072-.81-.041-.789v-4.573h1.702V87h-1.384l-.226-1.507zm-3.404.287c1.162 0 2.003-.315 2.522-.944.527-.635.79-1.657.79-3.066v-.358c0-1.593-.267-2.728-.8-3.405-.526-.683-1.371-1.025-2.533-1.025-.998 0-1.763.39-2.297 1.169-.526.772-.789 1.866-.789 3.281 0 1.436.263 2.52.789 3.25.527.732 1.299 1.098 2.318 1.098zm9.444-.092c.963 1.011 2.276 1.517 3.937 1.517.759 0 1.405-.058 1.938-.174a8.694 8.694 0 0 0 1.712-.554V84.96c-1.182.505-2.378.758-3.588.758-1.149 0-2.041-.342-2.677-1.025-.629-.684-.96-1.685-.994-3.004h7.741v-1.077c0-1.518-.41-2.738-1.23-3.66-.82-.93-1.935-1.395-3.343-1.395-1.504 0-2.703.533-3.599 1.6-.889 1.066-1.333 2.505-1.333 4.316 0 1.798.479 3.203 1.436 4.215zm1.312-7.824c.54-.588 1.261-.882 2.164-.882.888 0 1.572.287 2.05.861.479.568.718 1.388.718 2.461h-5.875c.095-1.039.41-1.852.943-2.44z" fill="#fff"/><path d="M161.919 87v-7.27c0-.916-.209-1.6-.626-2.05-.417-.452-1.069-.678-1.958-.678-1.176 0-2.037.318-2.584.954-.547.636-.82 1.685-.82 3.148V87h-1.702V75.762h1.384l.277 1.538h.082a3.436 3.436 0 0 1 1.466-1.282c.629-.308 1.33-.461 2.102-.461 1.354 0 2.372.328 3.056.984.683.65 1.025 1.692 1.025 3.127V87h-1.702zm5.209 0h1.702V75.762h-1.702V87zm.143-15.135c-.191.178-.287.462-.287.851 0 .383.096.67.287.862a.995.995 0 0 0 .718.276c.274 0 .51-.092.708-.276.198-.192.297-.479.297-.862 0-.382-.099-.666-.297-.85a1.003 1.003 0 0 0-.708-.278.995.995 0 0 0-.718.277zm12.418 12.069c0 1.046-.39 1.853-1.169 2.42s-1.873.851-3.281.851c-1.49 0-2.653-.236-3.487-.707v-1.58c.54.274 1.118.49 1.733.646a7.325 7.325 0 0 0 1.795.236c.888 0 1.572-.14 2.051-.42.478-.287.717-.721.717-1.302 0-.438-.191-.81-.574-1.118-.376-.314-1.114-.684-2.215-1.107-1.046-.39-1.791-.728-2.235-1.016-.438-.294-.766-.625-.984-.994-.212-.37-.318-.81-.318-1.323 0-.916.372-1.637 1.117-2.164.745-.533 1.767-.8 3.066-.8a8.97 8.97 0 0 1 3.548.739l-.605 1.384c-1.128-.465-2.15-.697-3.066-.697-.806 0-1.415.126-1.825.38-.41.252-.615.6-.615 1.045 0 .301.075.557.225.77.158.211.407.413.749.604.342.192.998.468 1.969.83 1.333.486 2.232.975 2.696 1.467.472.492.708 1.111.708 1.856z" fill="#fff"/></svg>