<svg width="753" height="644" fill="none" xmlns="http://www.w3.org/2000/svg"><path fill-rule="evenodd" clip-rule="evenodd" d="M559.452 254.613c65.079 0 127.727 5.976 186.384 17.011 3.712.699 7.159-2.138 7.159-5.916V108.937a5.976 5.976 0 0 0-4.846-5.876c-59.321-11.344-122.762-18.06-188.697-18.06-47.247 0-93.201 3.328-137.29 9.287a5.975 5.975 0 0 0-5.167 5.929v156.882c0 3.646 3.222 6.447 6.836 5.969 43.579-5.765 88.97-8.455 135.621-8.455z" fill="#fff" fill-opacity=".2"/><path fill-rule="evenodd" clip-rule="evenodd" d="M398.995 223.832c0-4.49 4.784-7.464 8.899-5.667 9.937 4.34 25.875 10.323 35.413 8.873 14.63-2.224 26.714-31.085 39.91-33.084 13.195-1.998 12.2 16.686 20.131 16.686 7.93 0 12.102-41.553 33.647-41.553 21.545 0 32.666 68.471 48.037 68.471 15.372 0 17.116-39.123 46.661-39.123s22.835 24.621 41.492 24.621c17.377 0 26.075-44.722 53.444-52.88 3.35-.999 6.366 1.808 6.366 5.303v114.257c0 3.768-3.399 6.631-7.114 5.998-32.909-5.606-174.952-27.077-320.027-7.681-3.618.483-6.859-2.319-6.859-5.969v-58.252z" fill="url(#paint0_linear)"/><path fill-rule="evenodd" clip-rule="evenodd" d="M316.912 287.386a6.028 6.028 0 0 0 4.083-5.697V171.351c0-4.103-4.027-6.995-7.902-5.647-27.826 9.683-54.174 20.551-78.775 32.649a5.962 5.962 0 0 0-3.323 5.357v109.586c0 4.46 4.694 7.367 8.715 5.439 24.181-11.597 49.997-22.033 77.202-31.349z" fill="#fff" fill-opacity=".2"/><path fill-rule="evenodd" clip-rule="evenodd" d="M248.995 292.452c0-4.84 5.436-7.689 9.415-4.934l12.683 8.781a6 6 0 0 0 7.429-.473l4.761-4.286a6.004 6.004 0 0 1 4.014-1.54h14.475a6 6 0 0 0 5.002-2.687l4.441-6.705a6.001 6.001 0 0 1 5.002-2.686h6.261a5.587 5.587 0 0 0 5.464-4.416c1.407-6.554 11.053-5.53 11.053 1.172v21.002c0 2.58-1.62 4.863-4.063 5.694-12.958 4.412-53.806 18.545-76.843 29.111-4.155 1.905-9.094-1.093-9.094-5.663v-32.37z" fill="url(#paint1_linear)"/><path fill-rule="evenodd" clip-rule="evenodd" d="M149.842 367.71a6.044 6.044 0 0 0 3.158-5.296V189.038c0-4.539-4.845-7.424-8.803-5.206-55.67 31.199-100.811 68.895-132.021 110.586A5.926 5.926 0 0 0 11 297.975v166.797c0 5.789 7.549 8.345 11.255 3.899 31.681-38.01 75.125-72.333 127.587-100.961z" fill="#fff" fill-opacity=".1"/><path d="M463 455l-137 80 137 80 137-80-137-80z" fill="url(#paint2_linear)"/><path d="M326 768.839V535l137 80v210c-51.997 0-100.149-22.389-137-56.161z" fill="url(#paint3_linear)"/><path d="M463 785V615l137-80v193.839C563.149 762.611 514.997 785 463 785z" fill="url(#paint4_linear)"/><path opacity=".15" d="M465 567c-29.824 0-54-14.327-54-32 0-17.673 24.176-32 54-32 29.823 0 54 14.327 54 32 0 17.673-24.177 32-54 32z" fill="#ABB9DD"/><path d="M441.365 232.973c-1.61 3.896-2.299 7.793-2.529 11.46-.23 5.501-2.069 23.837-1.609 26.129.459 2.292 1.839 4.125 8.276 4.125h8.046c.69 1.146 1.15 2.292 1.609 3.438.46 1.146.69 3.438 1.15 6.418 6.667.229 11.495-.229 14.943-1.604 3.218-1.376 5.288-3.438 5.977-6.418-1.149-3.438-1.839-5.73-1.839-7.334 0-2.292 5.747-6.876 8.276-15.815s-.919-16.044-4.368-19.482c-3.448-3.438-11.494-9.627-22.299-9.856-7.587-.229-12.645 2.751-15.633 8.939z" fill="#F8B9BF"/><path d="M454.469 254.747c.689-.917 1.379-1.834 4.368-1.834 2.988 0 4.368 4.355 2.069 7.335-2.299 2.979-5.058 4.125-6.207 3.896-1.15-.229-2.07-1.604-1.84-2.979 0-1.146.69-5.272 1.61-6.418z" fill="#E8AEB4"/><path d="M470.56 269.171c1.84.229 3.449.229 4.828-.459 1.38-.688 4.598-4.584 7.816-10.772 3.219-6.189 2.989-10.773 2.759-13.982-.23-2.062-1.379-3.896-3.448-5.271.919-4.584-2.989-9.626-11.955-15.127-13.333-8.022-25.288-3.667-28.277-.459-2.988 3.438-2.758 6.189-1.609 8.481.676 1.347 3.02 3.169 4.837 4.582 1.274.991 2.29 1.781 2.29 2.064 0 .237-.611.899-1.296 1.642l-.009.01c-.643.696-1.351 1.463-1.684 2.016-.401.8.911 2.611 2.169 4.345l.008.012.004.004c.897 1.24 1.766 2.439 1.957 3.202.23 1.146.722 5.038.46 6.876-.262 1.838-2.299 7.58-3.448 8.497-2.069 1.604-5.747-.459-6.207-2.521a16.182 16.182 0 0 0-1.952-4.003c-.445 5.706-.812 11.081-.577 12.254.46 2.292 1.839 4.125 8.276 4.125h7.748c.101-.151.2-.304.298-.458 1.61-2.292 2.07-5.73 1.84-6.876-.089-.442-.553-.952-1.104-1.556-.878-.964-1.973-2.166-2.115-3.716-.69-1.146-.46-3.454 0-5.746.919-3.209 2.989-3.896 5.058-3.896 1.593.176 3.186 4.429 4.464 7.841l.012.033c.377 1.007.728 1.939 1.041 2.669 1.149 3.209 6.207 5.959 7.816 6.189z" fill="#070B0E"/><path d="M454.238 253.585c.69-.917 1.15-1.834 3.908-1.834 2.529 0 3.909 4.355 1.839 7.335-2.069 2.979-4.597 4.354-5.517 4.354-.92-.229-1.839-1.146-1.839-2.292-.23-1.375.919-6.417 1.609-7.563z" fill="#F8B9BF"/><path d="M486.423 511.893c1.149-.229 1.839-1.146 2.069-2.98.23-1.833 4.138-2.062 11.495-.458l.689 8.48c-2.988 1.834-5.977 2.063-8.506.688-2.528-1.375-4.368-3.209-5.747-5.73zm-34.254 24.295l1.379-11.231 11.495.459 1.609 10.085c-2.529 1.604-4.828 2.292-7.356 2.521-2.299 0-4.828-.459-7.127-1.834z" fill="#F0B4BA"/><path d="M459.296 531.604c-4.828 0-6.897-1.834-7.357-4.125-.46-2.063-9.656-57.988-9.885-62.343 0-2.979-1.38-30.254-3.679-81.824 28.737-14.669 45.749-20.857 51.037-18.794 5.287 2.292 7.586 4.813 6.667 7.792-.92 48.591-1.61 74.032-1.61 76.095 0 3.208 6.207 57.07 6.207 60.05-.229 2.75-2.528 3.896-5.977 4.126-3.448.229-5.977-.917-6.667-2.751-.919-1.833-14.713-57.758-14.943-59.821-.23-1.604-1.609-15.356-4.138-41.485-4.138 35.297-6.207 54.091-6.207 55.925 0 2.979 3.678 60.279 3.448 62.113-.23 1.833-2.069 5.042-6.896 5.042z" fill="#F85476"/><path d="M467.573 536.188c.23 2.75.689 5.042.919 6.647.46 1.604.46 4.125.46 7.563-2.069 1.376-5.288 2.292-10.115 2.292-7.127.23-8.736-1.146-16.093 0-7.356 1.146-18.621-.916-18.161-5.73.229-3.667 8.046-5.959 13.793-6.876 5.748-1.146 6.667-1.146 8.736-2.521 1.38-.917 2.529-2.063 3.908-3.667 1.61 3.209 3.909 5.042 7.357 5.042 3.678.23 6.667-.687 9.196-2.75z" fill="#FFCD50"/><path d="M467.573 533.896c.23 2.75.689 5.042.919 6.647.46 1.604.46 4.125.46 7.563-2.069 1.376-5.288 2.292-10.115 2.292-7.127.23-8.736-1.146-16.093 0-7.356 1.146-18.621-.916-18.161-5.73.229-3.667 8.046-5.959 13.793-6.876 5.748-1.146 6.667-1.146 8.736-2.521 1.38-.917 2.529-2.063 3.908-3.667 1.61 3.209 3.909 5.042 7.357 5.042 3.678.23 6.667-.687 9.196-2.75z" fill="url(#paint5_linear)"/><path d="M501.137 517.165c.46 2.292.69 4.813.92 7.105.23 1.833.23 3.667 0 5.501-.23 2.292-2.299 3.438-5.978 3.438-5.517 0-9.425-4.355-11.954-6.647-2.529-2.522-6.897-3.438-9.656-6.189-1.839-1.833-2.758-3.438-2.988-5.042 0-1.604.23-2.521.23-2.75 1.379-1.605 3.908-.459 6.667 0 3.218.458 5.977.687 8.736.458 0 2.521 1.839 4.355 5.747 5.272 3.908.916 6.667.458 8.276-1.146z" fill="#FFCD50"/><path d="M501.137 514.873c.46 2.292.69 4.813.92 7.105.23 1.833.23 3.667 0 5.73-.23 2.292-2.299 3.438-5.978 3.438-5.517 0-8.965-4.126-11.494-6.418-2.529-2.521-7.127-3.438-9.886-5.959-1.839-1.834-2.758-3.667-2.988-5.73 1.149-2.063 3.448-2.98 6.667-2.292 3.218.458 5.977.688 8.736.458 0 2.522 1.839 4.355 5.747 5.272 3.908.458 6.667 0 8.276-1.604z" fill="url(#paint6_linear)"/><path d="M496.079 276.505C510.103 301.946 517 317.532 517 322.803c0 8.251-14.714 39.652-20.921 42.402-5.977 2.75-3.448-8.251-2.299-10.085 1.15-1.833 8.966-26.816 8.966-29.566 0-1.834-3.678-9.168-10.805-22.233l4.138-26.816z" fill="url(#paint7_linear)"/><path d="M451.939 291.403c-2.299 1.834-4.368 3.209-6.437 3.896-2.989 1.146-8.276 5.73-8.736 8.252-.69 2.521 2.529 22.003 2.529 34.609 0 8.48-.46 24.295-1.839 47.444 2.988 7.564 10.575 11.918 22.989 12.835 18.621 1.605 34.254-6.876 36.553-10.772 2.069-3.438 3.908-60.967 3.908-71.052 0-10.085 1.38-21.316 0-29.338-.689-3.896-2.529-8.709-5.057-11.918-2.529-3.438-7.357-3.896-10.576-2.063-4.367 2.292-6.207 3.209-5.977 2.98.46 3.896-2.529 6.876-8.506 8.709-6.437 1.834-12.644 3.897-18.851 6.418z" fill="url(#paint8_linear)"/><path d="M476.998 275.588s1.839.229 2.529 1.146c.69.917 1.609 2.98 1.839 4.813.23 1.834-3.908 7.793-13.564 8.939-6.437.688-11.724 1.146-16.092.917 0-2.521.23-4.355.919-5.501.92-1.375 2.529-2.75 5.978-2.75 3.678 0 6.896.458 11.724-1.834 5.058-1.833 6.667-5.73 6.667-5.73z" fill="#3071F3"/><path d="M380.903 280.172c-.92-1.604-1.61-2.75-1.61-3.438-.23-.917.69-4.584 3.449-6.417 2.758-1.605.23-5.043-2.299-3.668-1.839.917-2.989 2.063-3.908 3.668a52.107 52.107 0 0 1-2.299-5.272c-.92-2.292-2.299-7.105-8.277-4.126-5.977 2.751-6.207 8.252-2.528 14.44 2.528 4.126 4.827 7.334 7.126 10.085l10.346-5.272z" fill="#F0B4BA"/><path d="M446.192 317.532c-2.759.916-7.816 2.062-15.403 3.438-11.264 1.833-28.736 4.584-33.334 3.667-4.598-.917-27.358-36.443-28.047-38.735-.69-2.521 10.115-9.626 12.644-6.647 2.529 3.209 18.621 25.212 20.69 26.129 2.069.917 34.254-7.334 39.542-8.251 5.288-.688 8.046 3.667 8.966 8.251.46 2.75-1.15 6.876-5.058 12.148z" fill="url(#paint9_linear)"/><path d="M455.158 254.273s1.839-.917 2.529-.688c.919.229 1.609 1.834 1.149 3.209-.459 1.375-2.528 3.896-3.908 4.125-.46 0-.919-.229-.919-1.146-.23-1.604 1.149-5.5 1.149-5.5z" fill="url(#paint10_linear)"/><path fill-rule="evenodd" clip-rule="evenodd" d="M233.78 472.106c15.652 4.419 27.059 5.077 34.22 1.973-7.549 6.611-13.563 9.552-18.04 8.822-6.717-1.095-13.6-8.822-16.18-10.795z" fill="#0B42B3"/><path fill-rule="evenodd" clip-rule="evenodd" d="M214 459h28.179c0 14.821 7.999 20.177 16.53 21.986-9.968 5.653-28.652 2.453-33.942-2.22-5.291-4.672-8.44-6.519-10.767-19.766z" fill="url(#paint11_linear)"/><path fill-rule="evenodd" clip-rule="evenodd" d="M314.672 3.161c1.675 1.652 3.103 3.254 4.283 4.806 2.458 3.23 3.192 7.696 3.021 7.808-.932.616-6.263-2.934-7.304-5.816-.624-1.728-.624-3.994 0-6.798z" fill="#0B42B3"/><path fill-rule="evenodd" clip-rule="evenodd" d="M270 31.503c12.253-8.388 18.676-18.839 19.27-31.352 3.218-.482 9.432.119 25.026 2.838 1.452.253 1.58 2.563.385 6.93 5.257 1.932 7.666 3.774 7.227 5.524-3.811 15.17-8.852 22.087-16.459 25.337-8.728 1.11-20.544-1.981-35.449-9.277z" fill="url(#paint12_linear)"/><path fill-rule="evenodd" clip-rule="evenodd" d="M43.915 583.989c.12 1.95.113 3.731-.02 5.345-.278 3.358-2.329 6.518-2.5 6.493-.93-.14-2.272-5.293-1.303-7.649.58-1.412 1.855-2.809 3.823-4.189z" fill="#0B42B3"/><path fill-rule="evenodd" clip-rule="evenodd" d="M0 576.6c12.39 1.648 22.29-1.219 29.7-8.6 2.285 1.494 5.84 5.322 14.076 15.673.767.964-.451 2.459-3.656 4.485 2.206 4.116 2.679 6.592 1.42 7.425-10.918 7.229-17.964 8.687-24.557 6.457C10.893 597.869 5.232 589.389 0 576.6z" fill="url(#paint13_linear)"/><path fill-rule="evenodd" clip-rule="evenodd" d="M723.884 429c-3.564 9.817-15.168 15.483-26.884 17.633 4.732 7.317 14.177 19.076 22.382 27.567.391.404 1.972 1.037 2.388 1.368 2.514 2.007 5.204.873 6.601.853 6.91-2.139 13.044-3.058 18.795-8.22 2.948-2.648 5.138-5.077 5.834-6.255-1.718-5.189-10.225-9.734-29.116-32.946z" fill="url(#paint14_linear)"/><path fill-rule="evenodd" clip-rule="evenodd" d="M726.649 470.915c.132 2.876-4.982 5.509-7.903 2.685 3.133 2.969 5.919 3.407 8.231 3.4 2.311-.007 13.105.019 25.979-15.047-11.39 12.269-20.024 15.422-26.307 8.962z" fill="#E9A600"/><defs><linearGradient id="paint0_linear" x1="583.495" y1="111.607" x2="492.196" y2="325.414" gradientUnits="userSpaceOnUse"><stop stop-color="#FFD46A"/><stop offset="1" stop-color="#FFC637"/></linearGradient><linearGradient id="paint1_linear" x1="279.772" y1="393" x2="382.051" y2="337.775" gradientUnits="userSpaceOnUse"><stop stop-color="#F85476"/><stop offset="1" stop-color="#F96C8A"/></linearGradient><linearGradient id="paint2_linear" x1="523.661" y1="575.465" x2="216.954" y2="374.905" gradientUnits="userSpaceOnUse"><stop stop-color="#fff"/><stop offset="1" stop-color="#CFD7EB" stop-opacity="0"/></linearGradient><linearGradient id="paint3_linear" x1="394.5" y1="447.924" x2="394.5" y2="782.027" gradientUnits="userSpaceOnUse"><stop stop-color="#fff"/><stop offset="1" stop-color="#F3F5FA" stop-opacity="0"/></linearGradient><linearGradient id="paint4_linear" x1="531.5" y1="459.935" x2="531.5" y2="747.954" gradientUnits="userSpaceOnUse"><stop stop-color="#0B42B3"/><stop offset="1" stop-color="#F3F5FA" stop-opacity="0"/></linearGradient><linearGradient id="paint5_linear" x1="446.877" y1="550.497" x2="446.877" y2="537.801" gradientUnits="userSpaceOnUse"><stop stop-color="#3071F3"/><stop offset="1" stop-color="#4882F4"/></linearGradient><linearGradient id="paint6_linear" x1="487.05" y1="530.918" x2="487.05" y2="517.211" gradientUnits="userSpaceOnUse"><stop stop-color="#3071F3"/><stop offset="1" stop-color="#4882F4"/></linearGradient><linearGradient id="paint7_linear" x1="504.495" y1="365.812" x2="504.495" y2="279.725" gradientUnits="userSpaceOnUse"><stop stop-color="#3071F3"/><stop offset="1" stop-color="#4882F4"/></linearGradient><linearGradient id="paint8_linear" x1="468.977" y1="398.667" x2="468.977" y2="315.046" gradientUnits="userSpaceOnUse"><stop stop-color="#3071F3"/><stop offset="1" stop-color="#4882F4"/></linearGradient><linearGradient id="paint9_linear" x1="346.197" y1="290.481" x2="407.211" y2="338.868" gradientUnits="userSpaceOnUse"><stop stop-color="#3071F3"/><stop offset="1" stop-color="#4882F4"/></linearGradient><linearGradient id="paint10_linear" x1="454.318" y1="257.262" x2="458.619" y2="257.359" gradientUnits="userSpaceOnUse"><stop stop-color="#F8B9BF"/><stop offset="1" stop-color="#E8AEB4"/></linearGradient><linearGradient id="paint11_linear" x1="224.986" y1="459" x2="228.696" y2="485.089" gradientUnits="userSpaceOnUse"><stop stop-color="#78A3F7"/><stop offset="1" stop-color="#4882F4"/></linearGradient><linearGradient id="paint12_linear" x1="295.979" y1="0" x2="295.979" y2="41" gradientUnits="userSpaceOnUse"><stop stop-color="#78A3F7"/><stop offset="1" stop-color="#4882F4"/></linearGradient><linearGradient id="paint13_linear" x1="21.999" y1="568" x2="21.999" y2="603" gradientUnits="userSpaceOnUse"><stop stop-color="#78A3F7"/><stop offset="1" stop-color="#4882F4"/></linearGradient><linearGradient id="paint14_linear" x1="732.937" y1="429" x2="723.099" y2="459.959" gradientUnits="userSpaceOnUse"><stop stop-color="#FFBA12"/><stop offset="1" stop-color="#FFD46A"/></linearGradient></defs></svg>