<svg width="464" height="123" viewBox="0 0 464 123" fill="none" xmlns="http://www.w3.org/2000/svg">
<path opacity="0.2" d="M341.647 0V46.4396H293.177V0H170.823V46.4396H122.353V0H0V248.361C0.396198 306.97 25.0573 363.029 68.562 404.215C112.067 445.401 170.854 468.343 232 467.996C293.146 468.343 351.933 445.401 395.438 404.215C438.943 363.029 463.604 306.97 464 248.361V0H341.647ZM232.819 439.251C211.081 439.379 189.46 436.192 168.765 429.81V168.063L250.061 170.821C258.662 170.602 267.22 172.057 275.218 175.099C283.215 178.142 290.486 182.707 296.589 188.52C302.693 194.333 307.503 201.272 310.728 208.918C313.953 216.563 315.527 224.757 315.354 233.002C315.416 241.042 313.734 249.006 310.414 256.389C307.095 263.772 302.211 270.413 296.071 275.891C289.932 281.368 282.671 285.563 274.751 288.208C266.83 290.854 258.423 291.892 250.061 291.258L190.942 291.66V316.459L296.473 430.596C275.791 436.361 254.358 439.276 232.819 439.251ZM431.554 249.931C431.897 282.645 423.28 314.872 406.564 343.396C389.848 371.919 365.617 395.74 336.292 412.479L272.238 335.342C297.893 331.993 321.365 319.71 338.175 300.835C354.986 281.96 363.959 257.814 363.384 233.002C364.241 218.671 361.969 204.325 356.713 190.883C351.456 177.441 343.332 165.198 332.858 154.937C322.384 144.676 309.791 136.623 295.886 131.292C281.98 125.962 267.066 123.471 252.099 123.979L121.135 122.811V408.151C93.7639 390.984 71.3342 367.497 55.9069 339.85C40.4796 312.203 32.5497 281.283 32.846 249.931V31.1002H89.907V77.5397H203.649L203.23 31.1002H260.331L259.911 77.5397H374.053V31.1002H431.134V249.931H431.554Z" fill="white"/>
</svg>
