<svg width="20" height="24" viewBox="0 0 20 24" fill="none" xmlns="http://www.w3.org/2000/svg">
<g clip-path="url(#clip0)">
<path d="M18.0002 8.4C18.0002 14.704 9.60019 24 9.60019 24C9.60019 24 1.2002 14.704 1.2002 8.4C1.2002 6.17218 2.08519 4.03561 3.6605 2.4603C5.2358 0.884998 7.37238 0 9.60019 0C11.828 0 13.9646 0.884998 15.5399 2.4603C17.1152 4.03561 18.0002 6.17218 18.0002 8.4V8.4ZM12.5922 8.4C12.6223 7.98761 12.5671 7.57344 12.43 7.18335C12.2929 6.79325 12.0768 6.43561 11.7953 6.13277C11.5138 5.82992 11.1729 5.58836 10.7938 5.42319C10.4147 5.25801 10.0057 5.17277 9.59219 5.17277C9.17871 5.17277 8.76966 5.25801 8.3906 5.42319C8.01153 5.58836 7.67059 5.82992 7.38907 6.13277C7.10755 6.43561 6.89148 6.79325 6.75438 7.18335C6.61727 7.57344 6.56206 7.98761 6.59219 8.4C6.64757 9.1578 6.98769 9.86657 7.5442 10.3839C8.1007 10.9012 8.83237 11.1888 9.59219 11.1888C10.352 11.1888 11.0837 10.9012 11.6402 10.3839C12.1967 9.86657 12.5368 9.1578 12.5922 8.4V8.4Z" fill="#0D54E3"/>
</g>
<defs>
<clipPath id="clip0">
<rect width="19.2" height="24" fill="white"/>
</clipPath>
</defs>
</svg>
