<svg width="228" height="96" viewBox="0 0 228 96" fill="none" xmlns="http://www.w3.org/2000/svg">
<path d="M70.107 4.68287e-08V9.52607H60.1609V4.68287e-08H35.0535V9.52607H25.1073V4.68287e-08H0V50.9458C0.0813011 62.9681 5.14185 74.4675 14.0692 82.9159C22.9965 91.3643 35.0598 96.0703 47.6072 95.9992C60.1546 96.0703 72.2179 91.3643 81.1452 82.9159C90.0725 74.4675 95.1331 62.9681 95.2144 50.9458V4.68287e-08H70.107ZM47.7753 90.1029C43.3145 90.1289 38.8778 89.4752 34.6312 88.1662V34.4745L51.3134 35.0402C53.0784 34.9952 54.8345 35.2938 56.4756 35.9178C58.1167 36.5419 59.6086 37.4784 60.8611 38.6707C62.1136 39.8631 63.1006 41.2865 63.7625 42.8549C64.4243 44.4232 64.7472 46.104 64.7117 47.7953C64.7244 49.4444 64.3793 51.0781 63.6981 52.5926C63.0169 54.107 62.0146 55.4693 60.7548 56.593C59.495 57.7166 58.0051 58.577 56.3798 59.1197C54.7545 59.6623 53.0292 59.8753 51.3134 59.7451L39.182 59.8276V64.9148L60.8373 88.3273C56.5933 89.51 52.1952 90.1078 47.7753 90.1029ZM88.5562 51.2679C88.6266 57.9784 86.8584 64.5892 83.4282 70.4401C79.998 76.291 75.0259 81.1774 69.0083 84.6111L55.8642 68.788C61.1287 68.1012 65.9451 65.5816 69.3947 61.7097C72.8443 57.8379 74.6857 52.8848 74.5676 47.7953C74.7435 44.8555 74.2773 41.9128 73.1987 39.1555C72.12 36.3981 70.4528 33.8868 68.3035 31.7819C66.1543 29.6771 63.5703 28.0252 60.7167 26.9317C57.8632 25.8383 54.8029 25.3274 51.7316 25.4317L24.8572 25.192V83.7233C19.2407 80.2018 14.638 75.384 11.4723 69.7128C8.30655 64.0417 6.67931 57.699 6.74011 51.2679V6.37952H18.4492V15.9056H41.7895L41.7034 6.37952H53.4207L53.3346 15.9056H76.7569V6.37952H88.4702V51.2679H88.5562Z" fill="white"/>
<path d="M194.791 43.8539C194.726 42.5608 194.939 41.2689 195.416 40.0612C195.893 38.8535 196.623 37.7566 197.559 36.8413C198.495 35.926 199.617 35.2125 200.853 34.7466C202.088 34.2807 203.409 34.073 204.732 34.1363C205.97 34.0811 207.207 34.2671 208.371 34.6834C209.535 35.0998 210.603 35.7379 211.513 36.5613C212.422 37.3847 213.155 38.377 213.669 39.4798C214.183 40.5827 214.468 41.7742 214.507 42.9856C214.674 43.5267 214.674 44.1045 214.507 44.6456H198.269C198.354 46.2585 199.075 47.776 200.28 48.8799C201.486 49.9839 203.082 50.5882 204.734 50.5656C205.885 50.612 207.027 50.3403 208.028 49.7819C209.029 49.2236 209.849 48.4011 210.394 47.4084H213.951C213.259 49.2597 211.989 50.8512 210.321 51.9575C208.653 53.0637 206.67 53.628 204.655 53.5714C203.34 53.6204 202.029 53.4021 200.804 52.9301C199.58 52.4581 198.469 51.7429 197.542 50.8296C196.615 49.9162 195.891 48.8248 195.418 47.6241C194.944 46.4234 194.731 45.1394 194.791 43.8539ZM198.513 41.7993H210.961C210.719 40.411 209.953 39.1619 208.814 38.2989C207.676 37.4359 206.248 37.0217 204.813 37.1378C203.358 37.0201 201.91 37.4317 200.747 38.2941C199.584 39.1565 198.787 40.4092 198.511 41.8106L198.513 41.7993ZM135.723 43.696C135.697 42.3892 135.947 41.091 136.459 39.8835C136.97 38.6759 137.732 37.5851 138.695 36.6791C139.659 35.773 140.804 35.0714 142.058 34.6186C143.312 34.1659 144.648 33.9721 145.982 34.0485C147.289 33.9522 148.601 34.1601 149.809 34.6556C151.018 35.1511 152.089 35.9197 152.934 36.8985V34.3665H156.329V53.1726H152.851V50.6443C152.011 51.6071 150.953 52.3659 149.762 52.8605C148.57 53.3552 147.277 53.5723 145.985 53.4949C144.635 53.5814 143.283 53.3896 142.014 52.9317C140.746 52.4739 139.589 51.7601 138.621 50.8371C137.653 49.914 136.895 48.8022 136.395 47.5738C135.895 46.3454 135.664 45.0283 135.719 43.7072L135.723 43.696ZM139.197 43.696C139.154 44.5997 139.304 45.5021 139.639 46.3458C139.973 47.1894 140.483 47.9554 141.138 48.5952C141.792 49.2349 142.575 49.7341 143.438 50.0608C144.301 50.3876 145.224 50.5352 146.148 50.4934C147.042 50.4933 147.928 50.3183 148.752 49.9789C149.576 49.6396 150.323 49.1425 150.947 48.517C151.572 47.8915 152.064 47.1503 152.391 46.3367C152.719 45.5231 152.877 44.6536 152.856 43.7795C152.872 42.8863 152.702 41.9991 152.357 41.172C152.012 40.3448 151.499 39.5948 150.849 38.967C150.2 38.3392 149.426 37.8467 148.576 37.5195C147.726 37.1923 146.817 37.0372 145.904 37.0634C145.006 37.0294 144.111 37.1784 143.276 37.5013C142.44 37.8242 141.682 38.3136 141.051 38.9386C140.419 39.5636 139.928 40.3109 139.608 41.1318C139.288 41.9527 139.147 42.8298 139.192 43.7072L139.197 43.696ZM220.248 47.7263V37.1378H217.409V34.4516H220.239V30.9742L223.717 30.2639V34.4516H227.921V37.1378H223.717V47.7263C223.717 50.5768 225.486 50.6488 228 50.412V53.2626C227.464 53.2998 226.946 53.3193 226.453 53.3193C222.703 53.3237 220.243 52.1334 220.243 47.7349L220.248 47.7263ZM188.812 53.1791L182.347 44.8801L179.84 47.4892V53.1791H176.371V28.9197H179.849V43.2773L182.67 39.9884L188.014 34.4564H192.209L184.536 42.5161L192.768 52.8659V53.1833L188.812 53.1791ZM127.24 53.1791V36.1116L120.77 45.516H118.752L112.295 36.1116V53.1791H108.735V28.9197H111.65L119.815 40.6923L127.971 28.9197H130.805V53.1791H127.24ZM161.254 53.1791V34.4538H164.645V36.7454C165.493 35.5917 166.695 34.732 168.076 34.2916C169.458 33.8512 170.947 33.8531 172.327 34.2964V37.2979C171.428 37.0272 170.475 36.9697 169.548 37.1298C168.621 37.2899 167.746 37.6634 166.995 38.2192C166.245 38.7749 165.641 39.497 165.232 40.3262C164.823 41.1553 164.622 42.0675 164.645 42.9877V53.1791H161.254ZM137.501 19.7567H140.979C141.136 21.8924 143.15 22.9183 145.579 22.9183C147.279 22.9183 149.941 22.3658 149.941 20.1534C149.941 18.0199 146.953 17.7046 145.332 17.6256C141.943 17.4656 137.826 16.439 137.826 12.2511C137.826 7.90526 141.785 6.40332 145.501 6.40332C149.302 6.40332 152.614 7.98464 152.928 11.9358H149.539C149.38 10.276 147.521 9.48405 145.503 9.48405C143.399 9.48405 141.386 10.2755 141.386 12.2511C141.296 14.5424 144.047 14.4638 145.738 14.5428C149.382 14.7796 153.421 15.8865 153.421 20.1534C153.421 24.4992 149.05 25.8432 145.424 25.8432C141.448 25.8476 137.735 24.1879 137.497 19.7631L137.501 19.7567ZM169.986 25.5279L163.521 17.2284L161.016 19.8381V25.5279H157.534V1.26805H161.012V15.6369L163.842 12.3303L169.177 6.79838H173.381L165.701 14.8581L173.944 25.21V25.5258L169.986 25.5279ZM129.576 25.5279V6.5789H133.054V25.5429L129.576 25.5279ZM122.548 25.5279L113.496 14.8607V13.2029H117.695C118.285 13.2359 118.876 13.1493 119.43 12.9486C119.984 12.7479 120.49 12.4373 120.915 12.0364C121.34 11.6355 121.676 11.1529 121.902 10.6189C122.127 10.085 122.237 9.51131 122.225 8.93375C122.244 8.34354 122.141 7.75573 121.921 7.20575C121.701 6.65578 121.37 6.15519 120.946 5.73418C120.523 5.31316 120.016 4.9803 119.458 4.75616C118.899 4.53202 118.299 4.42125 117.695 4.43015H112.199V25.5279H108.647V0.952752H117.691C118.772 0.93054 119.847 1.12495 120.848 1.52447C121.849 1.92398 122.755 2.51999 123.512 3.27548C124.268 4.03097 124.859 4.9301 125.246 5.91725C125.634 6.9044 125.81 7.95875 125.764 9.01511C125.806 10.8009 125.181 12.5402 124.005 13.9073C122.829 15.2745 121.184 16.1757 119.377 16.4415L127.226 25.5301L122.548 25.5279ZM129.173 1.98109C129.204 1.44574 129.442 0.942131 129.841 0.57375C130.239 0.205369 130.767 -0.000106812 131.315 -0.000106812C131.864 -0.000106812 132.392 0.205369 132.79 0.57375C133.189 0.942131 133.427 1.44574 133.458 1.98109C133.459 2.25008 133.403 2.51626 133.294 2.76318C133.185 3.01011 133.025 3.23212 132.824 3.41573C132.623 3.59934 132.385 3.74044 132.126 3.83006C131.867 3.91969 131.591 3.95592 131.316 3.93659C131.042 3.95682 130.766 3.92154 130.506 3.83274C130.247 3.74394 130.009 3.60355 129.807 3.42055C129.606 3.23755 129.445 3.01569 129.335 2.76907C129.225 2.52245 129.168 2.25655 129.168 1.98751L129.173 1.98109Z" fill="white"/>
<path d="M113.902 74.6224C112.544 74.6224 111.491 74.2061 110.744 73.3736C110.002 72.5353 109.631 71.3521 109.631 69.8239C109.631 68.2558 110.008 67.0441 110.761 66.1887C111.52 65.3334 112.598 64.9057 113.996 64.9057C114.447 64.9057 114.898 64.9542 115.349 65.0511C115.799 65.1481 116.153 65.2621 116.41 65.3933L115.973 66.5993C115.659 66.4738 115.317 66.3712 114.946 66.2914C114.575 66.2058 114.247 66.1631 113.962 66.1631C112.056 66.1631 111.103 67.3777 111.103 69.8068C111.103 70.9587 111.335 71.8425 111.797 72.4584C112.265 73.0742 112.955 73.3821 113.868 73.3821C114.65 73.3821 115.451 73.2139 116.273 72.8775V74.1348C115.645 74.4598 114.855 74.6224 113.902 74.6224Z" fill="white"/>
<path d="M125.533 66.2914H122.486V74.4513H121.065V66.2914H118.052V65.0768H125.533V66.2914Z" fill="white"/>
<path d="M132.456 74.6224C131.845 74.6224 131.286 74.5112 130.778 74.2888C130.276 74.0607 129.854 73.7128 129.512 73.2453H129.409C129.477 73.7927 129.512 74.3116 129.512 74.802V78.6595H128.091V65.0768H129.246L129.443 66.3598H129.512C129.877 65.8466 130.302 65.476 130.787 65.2479C131.272 65.0198 131.828 64.9057 132.456 64.9057C133.7 64.9057 134.658 65.3305 135.332 66.1802C136.011 67.0298 136.35 68.2216 136.35 69.7555C136.35 71.2951 136.005 72.4926 135.314 73.3479C134.63 74.1975 133.677 74.6224 132.456 74.6224ZM132.251 66.1118C131.292 66.1118 130.599 66.3769 130.171 66.9072C129.743 67.4375 129.523 68.2815 129.512 69.439V69.7555C129.512 71.0727 129.731 72.0164 130.171 72.5867C130.61 73.1512 131.315 73.4334 132.285 73.4334C133.095 73.4334 133.728 73.1056 134.185 72.4498C134.647 71.794 134.878 70.8902 134.878 69.7384C134.878 68.5694 134.647 67.6742 134.185 67.0526C133.728 66.4254 133.084 66.1118 132.251 66.1118Z" fill="white"/>
<path d="M145.31 74.4513L145.028 73.117H144.959C144.492 73.7043 144.024 74.1034 143.556 74.3144C143.094 74.5197 142.514 74.6224 141.818 74.6224C140.888 74.6224 140.158 74.3829 139.627 73.9039C139.102 73.4249 138.84 72.7435 138.84 71.8596C138.84 69.9665 140.355 68.9743 143.385 68.883L144.977 68.8317V68.2501C144.977 67.5145 144.817 66.9728 144.497 66.625C144.183 66.2714 143.678 66.0946 142.982 66.0946C142.201 66.0946 141.316 66.3341 140.329 66.8131L139.893 65.7269C140.355 65.476 140.86 65.2792 141.408 65.1367C141.961 64.9941 142.514 64.9228 143.068 64.9228C144.186 64.9228 145.014 65.1709 145.55 65.667C146.092 66.1631 146.363 66.9585 146.363 68.0534V74.4513H145.31ZM142.101 73.4505C142.985 73.4505 143.678 73.2082 144.181 72.7235C144.688 72.2388 144.942 71.5602 144.942 70.6878V69.841L143.522 69.9009C142.392 69.9408 141.576 70.1176 141.074 70.4312C140.577 70.7391 140.329 71.221 140.329 71.8767C140.329 72.3899 140.483 72.7805 140.791 73.0485C141.105 73.3165 141.542 73.4505 142.101 73.4505Z" fill="white"/>
<path d="M152.259 69.6528L148.998 65.0768H150.616L153.089 68.6692L155.554 65.0768H157.155L153.894 69.6528L157.326 74.4513H155.717L153.089 70.6536L150.436 74.4513H148.827L152.259 69.6528Z" fill="white"/>
<path d="M167.989 69.7555C167.989 71.2837 167.604 72.4783 166.834 73.3393C166.064 74.1947 165 74.6224 163.642 74.6224C162.803 74.6224 162.058 74.4256 161.408 74.0322C160.757 73.6387 160.255 73.0742 159.901 72.3386C159.548 71.603 159.371 70.742 159.371 69.7555C159.371 68.2273 159.753 67.0384 160.518 66.1887C161.282 65.3334 162.344 64.9057 163.702 64.9057C165.014 64.9057 166.055 65.342 166.825 66.2144C167.601 67.0868 167.989 68.2672 167.989 69.7555ZM160.843 69.7555C160.843 70.953 161.083 71.8653 161.562 72.4926C162.041 73.1198 162.746 73.4334 163.676 73.4334C164.606 73.4334 165.311 73.1227 165.79 72.5011C166.275 71.8739 166.517 70.9587 166.517 69.7555C166.517 68.5637 166.275 67.6599 165.79 67.0441C165.311 66.4225 164.6 66.1118 163.659 66.1118C162.729 66.1118 162.027 66.4168 161.553 67.027C161.08 67.6371 160.843 68.5466 160.843 69.7555Z" fill="white"/>
<path d="M178.798 67.429C178.798 68.0391 178.621 68.5038 178.268 68.8232C177.92 69.1368 177.429 69.3478 176.796 69.4561V69.5331C177.594 69.6414 178.176 69.8752 178.542 70.2345C178.912 70.5937 179.098 71.0898 179.098 71.7228C179.098 72.5952 178.775 73.2681 178.131 73.7414C177.492 74.2146 176.556 74.4513 175.323 74.4513H171.19V65.0768H175.306C177.634 65.0768 178.798 65.8609 178.798 67.429ZM177.677 71.6287C177.677 71.1212 177.483 70.7534 177.095 70.5253C176.713 70.2915 176.077 70.1746 175.187 70.1746H172.61V73.2624H175.221C176.858 73.2624 177.677 72.7178 177.677 71.6287ZM177.412 67.5658C177.412 67.1096 177.235 66.7875 176.881 66.5993C176.533 66.4054 176.002 66.3085 175.289 66.3085H172.61V68.9515H175.015C175.894 68.9515 176.513 68.8431 176.873 68.6264C177.232 68.4098 177.412 68.0562 177.412 67.5658Z" fill="white"/>
<path d="M187.639 74.4513L187.356 73.117H187.288C186.82 73.7043 186.352 74.1034 185.884 74.3144C185.422 74.5197 184.843 74.6224 184.147 74.6224C183.217 74.6224 182.486 74.3829 181.956 73.9039C181.431 73.4249 181.168 72.7435 181.168 71.8596C181.168 69.9665 182.683 68.9743 185.713 68.883L187.305 68.8317V68.2501C187.305 67.5145 187.145 66.9728 186.826 66.625C186.512 66.2714 186.007 66.0946 185.311 66.0946C184.529 66.0946 183.645 66.3341 182.658 66.8131L182.221 65.7269C182.683 65.476 183.188 65.2792 183.736 65.1367C184.289 64.9941 184.843 64.9228 185.396 64.9228C186.515 64.9228 187.342 65.1709 187.878 65.667C188.42 66.1631 188.691 66.9585 188.691 68.0534V74.4513H187.639ZM184.429 73.4505C185.314 73.4505 186.007 73.2082 186.509 72.7235C187.017 72.2388 187.271 71.5602 187.271 70.6878V69.841L185.85 69.9009C184.72 69.9408 183.904 70.1176 183.402 70.4312C182.906 70.7391 182.658 71.221 182.658 71.8767C182.658 72.3899 182.812 72.7805 183.12 73.0485C183.434 73.3165 183.87 73.4505 184.429 73.4505Z" fill="white"/>
<path d="M193.749 65.0768V69.0028H199.004V65.0768H200.425V74.4513H199.004V70.2259H193.749V74.4513H192.328V65.0768H193.749Z" fill="white"/>
<path d="M205.474 65.0768V71.0214L205.414 72.5781L205.388 73.0656L210.463 65.0768H212.235V74.4513H210.908V68.7205L210.934 67.5915L210.977 66.4796L205.91 74.4513H204.138V65.0768H205.474Z" fill="white"/>
<path d="M219.911 74.6224C218.525 74.6224 217.429 74.2004 216.625 73.3565C215.826 72.5125 215.427 71.3407 215.427 69.841C215.427 68.3299 215.797 67.1296 216.539 66.2401C217.287 65.3505 218.288 64.9057 219.543 64.9057C220.719 64.9057 221.649 65.2935 222.333 66.069C223.018 66.8388 223.36 67.8566 223.36 69.1225V70.0206H216.899C216.927 71.1212 217.204 71.9566 217.729 72.5268C218.259 73.097 219.004 73.3821 219.963 73.3821C220.973 73.3821 221.971 73.1711 222.958 72.7492V74.0151C222.456 74.2318 221.98 74.3857 221.529 74.4769C221.084 74.5739 220.545 74.6224 219.911 74.6224ZM219.526 66.0946C218.773 66.0946 218.171 66.3398 217.72 66.8302C217.275 67.3206 217.013 67.9992 216.933 68.8659H221.837C221.837 67.9707 221.637 67.2864 221.238 66.8131C220.839 66.3341 220.268 66.0946 219.526 66.0946Z" fill="white"/>
<path d="M118.25 85.756C118.25 87.2842 117.865 88.4788 117.094 89.3398C116.324 90.1952 115.26 90.6228 113.902 90.6228C113.063 90.6228 112.319 90.4261 111.668 90.0327C111.018 89.6392 110.516 89.0747 110.162 88.3391C109.808 87.6035 109.631 86.7425 109.631 85.756C109.631 84.2278 110.014 83.0389 110.778 82.1892C111.543 81.3339 112.604 80.9062 113.962 80.9062C115.274 80.9062 116.316 81.3424 117.086 82.2149C117.862 83.0873 118.25 84.2677 118.25 85.756ZM111.103 85.756C111.103 86.9534 111.343 87.8658 111.822 88.4931C112.302 89.1203 113.006 89.4339 113.936 89.4339C114.866 89.4339 115.571 89.1232 116.05 88.5016C116.535 87.8744 116.778 86.9591 116.778 85.756C116.778 84.5642 116.535 83.6604 116.05 83.0446C115.571 82.423 114.861 82.1122 113.919 82.1122C112.989 82.1122 112.287 82.4173 111.814 83.0275C111.34 83.6376 111.103 84.5471 111.103 85.756Z" fill="white"/>
<path d="M122.871 81.0773V85.0033H128.126V81.0773H129.547V90.4518H128.126V86.2264H122.871V90.4518H121.45V81.0773H122.871Z" fill="white"/>
<path d="M140.253 90.4518H138.815V82.2919H135.999C135.845 84.3219 135.631 85.9327 135.357 87.1245C135.083 88.3163 134.727 89.1887 134.287 89.7418C133.854 90.295 133.3 90.5715 132.627 90.5715C132.319 90.5715 132.074 90.5373 131.891 90.4689V89.4168C132.017 89.451 132.159 89.4681 132.319 89.4681C132.975 89.4681 133.497 88.7753 133.885 87.3897C134.273 86.004 134.567 83.8999 134.767 81.0773H140.253V90.4518Z" fill="white"/>
<path d="M149.744 90.4518L149.461 89.1174H149.393C148.925 89.7048 148.457 90.1039 147.989 90.3149C147.527 90.5202 146.948 90.6228 146.252 90.6228C145.322 90.6228 144.591 90.3833 144.061 89.9044C143.536 89.4254 143.273 88.744 143.273 87.8601C143.273 85.967 144.788 84.9748 147.818 84.8835L149.41 84.8322V84.2506C149.41 83.515 149.25 82.9733 148.931 82.6254C148.617 82.2719 148.112 82.0951 147.416 82.0951C146.634 82.0951 145.75 82.3346 144.763 82.8136L144.326 81.7273C144.788 81.4764 145.293 81.2797 145.841 81.1372C146.394 80.9946 146.948 80.9233 147.501 80.9233C148.62 80.9233 149.447 81.1714 149.983 81.6675C150.525 82.1636 150.796 82.959 150.796 84.0539V90.4518H149.744ZM146.534 89.451C147.419 89.451 148.112 89.2087 148.614 88.724C149.122 88.2393 149.376 87.5607 149.376 86.6883V85.8415L147.955 85.9014C146.825 85.9413 146.009 86.1181 145.507 86.4317C145.011 86.7396 144.763 87.2215 144.763 87.8772C144.763 88.3904 144.917 88.781 145.225 89.049C145.539 89.317 145.975 89.451 146.534 89.451Z" fill="white"/>
<path d="M155.768 81.0773V87.0219L155.708 88.5786L155.683 89.0661L160.758 81.0773H162.53V90.4518H161.203V84.721L161.229 83.592L161.272 82.48L156.205 90.4518H154.433V81.0773H155.768ZM158.447 79.837C157.392 79.837 156.621 79.6346 156.136 79.2298C155.651 78.8192 155.38 78.1463 155.323 77.2112H156.658C156.71 77.8042 156.864 78.2176 157.121 78.4514C157.383 78.6852 157.837 78.8021 158.481 78.8021C159.069 78.8021 159.503 78.6766 159.782 78.4257C160.068 78.1748 160.242 77.77 160.304 77.2112H161.648C161.58 78.1121 161.292 78.7764 160.784 79.2041C160.276 79.6261 159.497 79.837 158.447 79.837Z" fill="white"/>
<path d="M167.664 81.0773V85.0033H172.919V81.0773H174.34V90.4518H172.919V86.2264H167.664V90.4518H166.243V81.0773H167.664Z" fill="white"/>
</svg>
