<?xml version="1.0" encoding="utf-8"?>
<!-- Generator: Adobe Illustrator 23.0.3, SVG Export Plug-In . SVG Version: 6.00 Build 0)  -->
<svg version="1.1" xmlns="http://www.w3.org/2000/svg" xmlns:xlink="http://www.w3.org/1999/xlink" x="0px" y="0px"
	 viewBox="0 0 800 870.77" style="enable-background:new 0 0 800 870.77;" xml:space="preserve">
<style type="text/css">
	.st0{fill:#D6EEF2;}
	.st1{fill:#B1C7D1;}
	.st2{fill:#A3BDCD;}
	.st3{fill:#F7F7F7;}
	.st4{fill:#FFDF99;}
	.st5{fill:#EDF7F9;}
	.st6{fill:#FCD275;}
	.st7{fill:none;stroke:#EDF7F9;stroke-linecap:round;stroke-linejoin:round;stroke-miterlimit:10;}
	.st8{fill:#F2BA45;}
	.st9{fill:#918C2C;}
	.st10{fill:#FFEBC7;}
	.st11{fill:none;stroke:#FFEBC7;stroke-width:2;stroke-linecap:round;stroke-linejoin:round;stroke-miterlimit:10;}
	.st12{fill:#FFFFFF;}
	.st13{fill:#E29D23;}
	.st14{fill:#BCAA04;}
	.st15{fill:#8D8833;}
	.st16{fill:#9F9D38;}
	.st17{fill:#4A642E;}
	.st18{fill:#9C9037;}
	.st19{fill:#0F75BD;}
	.st20{fill:#847D2C;}
	.st21{fill:none;stroke:#FFFFFF;stroke-linecap:round;stroke-miterlimit:10;}
	.st22{fill:#E6AA86;}
	.st23{fill:#DB9D7F;}
	.st24{fill:#F49231;}
	.st25{fill:#5F353B;}
	.st26{fill:#E0A681;}
	.st27{fill:#E8B497;}
	.st28{fill:#AA2F73;}
	.st29{fill:#F16780;}
	.st30{fill:#7A513E;}
	.st31{fill:#EF5677;}
</style>
<g id="Layer_2">
	<rect x="-2.08" y="-1.9" class="st0" width="803.81" height="400.73"/>
	<path class="st1" d="M-2.08,360.13c0,0,521.08-4.06,556.84-4.82s76.08-3.8,85.97-3.8s161-6.09,161-6.09v251.06H-2.08V360.13z"/>
	<path class="st2" d="M-2.08,873.01V526.64c0,0,18.36-5.58,31.55-7.27s24.01-6.42,34.83-5.75s32.46,6.42,43.62,7.78
		c11.16,1.35,30.77,0.68,50.04-1.01s42.6,1.69,70.67,4.06c28.06,2.37,49.71-2.37,62.22-2.71s17.67,1.61,25.4,1.61
		c7.73,0,14.96-1.52,27.13-1.01c12.17,0.51,22.19,5.96,27.9,6.72c5.71,0.76,7.73,1.14,16.36-0.76s38.12-4.52,59.43-4.86
		c21.3-0.34,19.27,1.35,39.56,1.69s27.05-2.71,33.81-2.71s10.14-4.06,20.96-4.06s20.96,5.41,32.12,5.41s14.2-5.07,26.04-5.07
		s21.64,5.41,27.73,4.9c6.09-0.51,14.46-4.82,28.91-4.82s24.85,1.78,37.28-1.52c12.43-3.3,11.92-7.35,27.39-8.88
		c15.47-1.52,25.36-1.27,37.28,0c11.92,1.27,20.19,4.82,28.99,5.33c8.8,0.51,14.6,0.51,14.6,0.51L801.71,873L-2.08,873.01"/>
	<path class="st3" d="M-2.08,548.79c0,0,17.24-6.17,24.85-7.44c7.61-1.27,25.39-1.8,34.77-4.09c9.38-2.28,34.91,3.32,40.49,3.58
		s18.51,8.75,21.05,10.65s10.4,4.31,12.05,5.83c1.65,1.52,7.23,7.23,11.54,7.99c4.31,0.76,12.17,0.89,18.64-0.63
		s12.3-0.76,13.57-1.39c1.27-0.63,1.01-5.71,4.06-6.59c3.04-0.89,11.29,1.01,18.13,1.78c6.85,0.76,36.9,4.44,56.68,4.95
		s29.67-1.01,34.49-3.8s16.74-4.82,23.84-4.06s27.39,7.1,35.25,7.61s15.22-3.55,19.53-3.55c4.31,0,5.45,0,7.61,3.93
		c2.16,3.93,1.39,4.69,5.71,4.06s5.71-2.16,14.58-2.16c8.88,0,17.24,4.44,24.98,4.44s-0.13,0.13,15.34,0
		c15.47-0.13,80.26-1.9,87.74-3.42c7.48-1.52,10.52-2.92,17.63-1.27c7.1,1.65,30.94,5.82,33.35,4.75s6.09-6.65,14.71-6.9
		c8.62-0.25,12.93,3.3,17.5,2.66c4.56-0.63,7.23-1.78,10.78-1.52s5.96,1.14,11.16-0.76c5.2-1.9,3.04-6.59,16.48-6.47
		c13.44,0.13,10.9,3.8,19.4,3.8s13.31-0.51,16.23,1.39c2.92,1.9,8.88,4.18,11.79,3.04s5.33-3.42,9.13-2.41s15.09,7.69,24.35,7.33
		c9.26-0.36,13.82-0.23,19.91-3.15c6.09-2.92,9.26-4.82,18.26-5.33c9-0.51,10.27-3.04,18.26-1.9c7.99,1.14,20-1.52,20-1.52v314.8
		H-2.08V548.79z"/>
	<path class="st4" d="M-2.08,559.61c0,0,11.09-7.61,17.86-8.62s15.89-2.87,24.68-3.72c8.79-0.85,28.23-1.52,33.31-1.35
		s15.55,2.37,18.6,5.07c3.04,2.71,7.95,9.81,14.54,11.16c6.59,1.35,26.88,13.19,35.17,13.36c8.28,0.17,12.17,5.07,15.38,4.4
		c3.21-0.68,6.26-5.58,8.79-5.58s9.81,3.89,18.77,2.37c8.96-1.52,14.37-4.06,25.36-4.9c10.99-0.85,26.88,1.18,36.35,1.18
		s34.32-1.01,41.93-2.71s10.14-1.69,27.39,1.18c17.24,2.87,24.18,8.28,30.6,6.09c6.42-2.2,10.31-4.06,18.6-4.56s30.43,3.38,35,3.63
		s16.99,2.62,21.13,2.03c4.14-0.59,5.33-0.93,13.53-0.93s82.84,3.55,93.49,0.51c10.65-3.04,16.4-0.04,30.94,1.75
		c14.54,1.8,28.53,4.06,33.22,3.04c4.69-1.01,8.37-2.92,11.6-2.92c3.23,0,2.85,0.44,6.66-0.63c3.8-1.08,13.27-6.91,20.37-8.01
		c7.1-1.1,11.5-0.68,16.99-0.34s24.26,3.72,28.83,3.72c4.56,0,14.54-4.4,22.06-4.48c7.52-0.08,12.68,2.96,21.89,4.73
		s18.43,2.54,24.18,0.51c5.75-2.03,11.67-6.76,16.82-7.69c5.16-0.93,8.37-0.85,12.34-0.68c3.97,0.17,8.77-2.2,12.84-2.2
		c4.07,0,14.6,1.69,14.6,1.69v306.3H-2.08V559.61z"/>
	<path class="st5" d="M551.84,437.74c3.68-0.63,19.53-1.01,26.12-1.14s10.65,0.89,17.12,1.14s6.09,1.14,12.68,0
		c6.59-1.14,3.93-0.84,8.88-0.29c4.95,0.55,6.59,0.54,3.55,0.86s-5.45,0.06-7.48,0s-6.85,1.59-9.38,1.46
		c-2.54-0.13-5.2-0.89-8.5-0.89s-9.38-0.64-13.06-0.7c-3.68-0.06-4.18-0.95-9.89,0s-7.35-0.32-10.02,0
		c-2.66,0.32-5.16-0.48-8.07-0.1s-4.69,0.61-3.76,0.21C550.96,437.89,551.84,437.74,551.84,437.74z"/>
	<path class="st5" d="M-2.08,445.06c0,0,7.67-4.65,12.11-3.89c4.44,0.76,7.35,2.54,13.57,3.04c6.21,0.51,13.19,0,23.46,0.63
		s21.94,3.8,31.45,4.82c9.51,1.01,11.16,1.27,17.63,1.27s4.44,1.01,2.41,1.01s-17.5,1.27-23.71,0c-6.21-1.27-26.37-4.95-35.5-4.18
		s2.92,2.41-2.16,2.41s-11.16,0.51-15.22-1.39c-4.06-1.9-10.33-3.91-15.34-2.58c-3.42,0.91-8.69,4.44-8.69,4.44V445.06z"/>
	<path class="st5" d="M635.25,469.86c8.12-1.35,12-4.06,21.13-3.55c9.13,0.51,26.04,4.73,35.17,4.56c9.13-0.17,27.9,1.35,33.31,1.69
		c5.41,0.34,6.09,1.01,10.99,1.35s2.2-2.26,7.44-3.84s12.85-2.17,16.06-2.21s2.03,3.68,6.42,3.85c4.4,0.17,8.82,2.17,16.4,3.04
		c5.86,0.68,17.88-0.08,15.34,0.25c-2.54,0.34-13.82,0.93-17.03,0.42c-3.21-0.51-16.74-3.25-19.61-2.89
		c-2.87,0.36-8.79,0.19-10.48,2.05c-1.69,1.86,1.01,2.25-4.06,4.25s-10.23,0.4-11.58-0.36c-2.75-1.55-18.85-2.03-27.47-3.21
		c-8.62-1.18-12.17-3.21-16.57-2.87c-4.4,0.34-10.14-1.69-18.94-2.2c-8.79-0.51-12.34-1.52-16.4-1.18
		c-4.06,0.34-15.38,1.69-21.47,2.87C627.81,473.07,635.25,469.86,635.25,469.86z"/>
	<path class="st5" d="M249.94,444.06c6.09-0.84,31.11-4.23,38.04-4.23s21.64,6.26,25.7,4.23c4.06-2.03,8.28-1.45,13.53-1.91
		c5.24-0.46,14.2-1.47,21.64-2.32s9.47-2.71,24.85-0.85c15.38,1.86,24.68,2.99,33.47,2.34c8.79-0.65,19.44-0.99,28.23-1.32
		c8.79-0.34,7.27-1.86,14.2-0.51s12.68,2.48,5.41,1.83s-13.02-0.7-19.44,0c-6.42,0.7-14.54,0.7-20.63,0.7s-10.48,1.52-19.78,1.52
		s-19.95-1.18-28.91-1.18c-8.96,0-11.5-1.35-18.77,1.01s-7.1,3.21-15.05,2.54c-7.95-0.68-13.02-0.34-18.6,1.52
		c-5.58,1.86-6.76,4.4-14.71,1.18c-7.95-3.21-9.64-6.09-15.72-5.58c-6.09,0.51-28.06,3.04-31.62,2.54
		C248.25,445.07,248.71,444.23,249.94,444.06z"/>
	<path class="st5" d="M108.43,499.42c5.07-1.35,18.6-2.87,27.73-4.06c9.13-1.18,10.14,1.86,15.05,0s6.59-4.9,14.88-5.07
		c8.28-0.17,9.3,0,19.61,1.52c10.31,1.52,26.71,1.52,19.27,2.2c-7.44,0.68-22.32-1.01-30.26-1.01c-7.95,0-5.92-0.9-12,1.83
		s-0.51,6.45-11.83,4.59s-12.85-2.2-24.01-0.68c-11.16,1.52-11.33,2.03-17.58,2.37c-6.26,0.34-6.93-0.85-5.07-0.85
		S108.43,499.42,108.43,499.42z"/>
	<path class="st5" d="M363.21,508.04c7.84-2.51,30.43-6.76,41.25-7.78c10.82-1.01,11.16,1.01,19.61-2.37
		c8.45-3.38,8.45-5.75,20.96-6.09s11.83,4.06,28.4,4.06c16.57,0,20.63,0.34,26.71,0.34c6.09,0,13.53,4.04,19.61,3.71
		s11.16-0.69,16.91,0c5.75,0.69,3.25,4.15,10.99,4.79s12.55,0,22.44,0s12.05-0.76,22.44-1.27c10.4-0.51,15.47,0.38,8.75,1.01
		s-8.75,1.86-14.71,3.59c-5.96,1.73-7.23,3.51-13.44,1.86s-6.34-2.03-10.65-1.14c-4.31,0.89-9.51,1.14-13.57,0.25
		c-4.06-0.89-5.71-0.76-9.13-0.13c-3.42,0.63-5.45,0.25-12.68-1.27c-7.23-1.52-27.81-6.72-36.26-6.44c-8.45,0.27-14.03-0.61-21.98,0
		c-7.95,0.61-13.19-2.6-17.75-2.6c-4.56,0-9.13-0.17-12.51,1.69c-3.38,1.86-3.04,1.86-6.26,1.86s-3.21,3.47-7.35,3.72
		c-4.14,0.25-13.27-0.17-19.44-0.85c-6.17-0.68-16.15-0.17-20.03,0.42c-3.89,0.59-9.93-0.21-13.99,1.12
		C367.48,507.87,361.48,508.59,363.21,508.04z"/>
	<path class="st6" d="M-2.08,683.9c0,0,16.67-19.32,34.93-20.42c18.26-1.1,48.16-5.16,54.78-6.07s10.9-1.38,21.81-2.76
		c10.9-1.38,22.06,2.76,22.06,0s-16.99-4.97,1.52-5.79s20.8-5.52,41.34-3.86c20.54,1.66,28.66,2.48,48.44,2.48
		s146.5-3.28,156.64-2.83c10.14,0.44,0.34-7.62,3.72-7.45c3.38,0.17,14.88,0.56,27.05,0c12.17-0.57,14.54,0.54,44.3,8.63
		s65.26,6.62,74.73,4.05s106.08-14.66,123.62-12.8s19.83-2,18.81-4.76c-1.01-2.76-5.68-9.38,0.2-9.38s20.67-2.21,39.15-2.21
		s54.48-2.48,52.71,3.86c-1.78,6.35,5.07,7.73,8.37,7.73c3.3,0,28.94,0.83,28.94,0.83v142.39c0,0-97.16-4.71-109.34,12.96
		c-12.17,17.67-44.13,15.53-50.97,10.39c-6.85-5.14-66.19-2.65-84.45-3.48c-18.26-0.83-79.89-9.93-72.66,0
		c7.23,9.93-21.21,26.12-40.99,23.55s-60.31,2.39-122.7-8.56c-45.97-8.07-93.07-11.5-95.35,0c-2.28,11.5-9.6,12.76-17.74,15.86
		s-35.52-11.25-59.87-4.91c-24.35,6.35-56.3-3.86-81.4,0c-25.11,3.86-67.65,9.7-67.65,9.7V683.9"/>
	<line class="st7" x1="458.38" y1="370.47" x2="477.79" y2="370.47"/>
	<line class="st7" x1="400.44" y1="401.49" x2="419.85" y2="401.49"/>
	<line class="st7" x1="225.36" y1="377.79" x2="235.07" y2="377.79"/>
	<line class="st7" x1="17.92" y1="384.12" x2="27.62" y2="384.12"/>
	<line class="st7" x1="254.78" y1="405.48" x2="275.45" y2="405.48"/>
	<path class="st8" d="M-2.08,355.52c4.84-0.06,18.03,1.82,24.45,1.56c6.42-0.27,17.24,0.66,25.7,0.03
		c8.45-0.63,28.06-3.32,35.5-5.69c7.44-2.38,9.81,1.87,12.51,2.96s26.04,1.79,27.56,2.96c1.52,1.17,6.59-1.04,7.61-1.71
		c1.01-0.67,2.8-0.98,7.87,1.46c5.07,2.44,24.21,1.04,27.26,1.3c3.04,0.25,19.39-2.6,21.68-1.24s12.68,0.44,27.39,1.26
		c1.26,0.07-18.64,2.63-22.95,2.77c-3.51,0.11-15.22-0.63-20.67-0.63s-25.78,0.91-28.11,0.84c-2.32-0.08-15.41,0.68-21.23,0.56
		s-34.01-0.73-37.56-0.7c-3.55,0.03-13.12-0.66-15.9,0.13c-2.78,0.79-3.71,0.65-6.67,0.59c-2.96-0.06-13.86,1.48-17.16,1.63
		c-3.3,0.15-15.51-1.33-20.08-1.59c-4.57-0.26-9.26,0.95-17.12,0.95s-10.08,0.63-10.08,0.63V355.52z"/>
	<path class="st9" d="M193.81,852.57c22.99-1.99,45.46,7.14,44.2,3.57c-1.26-3.57,1.78-5,4.15-9.28c2.37-4.28-2.87,6.07-2.03,7.85
		s4.73,0.36,7.27-1.43s8.86,1.07,10.35,1.78s7.26-5.71,15.2-5.35s9.11,0,9.11,0s-1.69,2.5-0.68,3.21c1.01,0.71-1.18,1.07,0.68,2.5
		c1.86,1.43,17.61,3.93,21.23,3.93s11.23,1.78,13.09-1.43c1.86-3.21,7.95-6.6,13.02-5.09s3.38,2.23,2.87,4.73s-0.85,0,5.24,0
		s11.67-0.36,18.77,0.71c7.1,1.07,9.47,0.27,15.38,1.57c5.92,1.29,2.87-3.35,17.24-2.64c14.37,0.71,26.21,3.13,27.05,2.64
		c0.85-0.49,0.85-1.3,1.42-3.17c0.57-1.87-0.44,2.28,0,2.68c0.44,0.4,1.46-1.61,1.58-2.14s0.13-0.67,0,1.2s0.44,1.87,1.14,0.8
		c0.7-1.07,0.82-2.68,0.7-1.07s2.09,2.81,3.87,2.81s6.15,1.2,10.27,2.14s6.04,0.54,16.7,0c10.65-0.54,15.55,1.66,20.29,0.56
		c4.73-1.1-0.85,0.33,5.75-2.88s2.87-6.07,7.44-3.21s5.58,3.21,7.44,3.57c1.86,0.36,29.5-0.18,29.5-0.18v15.38l-329.75,0.39
		L193.81,852.57z"/>
	<path class="st10" d="M147.39,675.24c10.18-4.9,23.96-2.54,59.45,0c35.49,2.54,78.21,1.78,87.28-1.39
		c9.07-3.17,37.57-1.65,59.59-2.16c22.01-0.51,83.13-9.74,100-4.36c16.86,5.38,111.73,3.86,128.96,6.39
		c17.23,2.54,31.94,6.08,74.04,3.04c42.1-3.04,26.88,4.57,17.75,10.65c-9.13,6.09-19.27,19.81-33.47,29.43
		c-14.2,9.62-17.75,20.82-25.36,29.93c-7.61,9.11-25.04,28.38-36.69,37c-11.65,8.62-29.42-11.83-80.66-11.5
		c-23.36,0.15-48-2.03-94.74,0.07c-43.35,1.94-88.68,5.65-142.95-0.24c-32.58-3.53-79.18,7.08-91.32,9.37s-28.11,2.96-37.88,5.93
		c-9.77,2.96-4.7-11.75-22.45-23.92c-17.75-12.17-33.47-9.64-15.22-25.36S130.56,683.35,147.39,675.24z"/>
	<path class="st11" d="M678.69,679.26c4.14,0.98,6.17,2.83,12.54,2c6.57-0.86,11.39-2.29,14.77-0.96"/>
	<path class="st11" d="M667.06,691.25c0,0,8.54-1.35,11.58,0.85c3.04,2.2,5.66,9.72,11.67,9.81"/>
	<path class="st11" d="M657.6,701.03c0,0,4.82-3.3,10.4-1.18c5.58,2.11,5.33,7.69,13.36,9.97"/>
	<path class="st11" d="M646.35,709.58c0,0,5.41-0.66,9.3,1.57c3.89,2.23,13.86,1.81,16.15,1.47"/>
	<path class="st11" d="M638.58,716.85c5.33,0,8.12,2.28,10.99,5.16c2.87,2.87,4.14,5.41,7.86,5.83"/>
	<path class="st11" d="M612.96,745.75c4.82-0.38,13.06,2.41,16.36,5.45c3.3,3.04,8.12,5.71,9.26,5.83"/>
	<path class="st11" d="M579.99,778.33c0,0,14.01,1.87,18.64,4.31c4.63,2.44,15.34,9.38,15.34,9.38"/>
	<path class="st11" d="M601.17,759.95c0,0,4.57,4.56,9.13,6.09c4.56,1.52,12.3,3.55,12.3,3.55"/>
	<path class="st11" d="M149.51,675.92c0,0-2.6-2.26-5.71-3.28c-3.11-1.01-6.85-0.51-9.38-0.32s-3.87-0.57-4.18-0.76"/>
	<path class="st11" d="M144.95,686.02c0,0-10.27-4.88-16.48-4.5c-6.21,0.38-8.62,0.51-8.62,0.51"/>
</g>
<g id="облака">
	<path class="st12" d="M560.31,155.02c-0.89-2.74,11.16-3.55,15.72-3.55c4.56,0,6.42-0.51,7.95-1.35c1.52-0.85-0.85-1.52,7.61-1.69
		c8.45-0.17,24.01,1.01,25.87-1.01c1.86-2.03,0.68-2.37,5.07-2.37s20.8,0.34,22.99-1.18c2.2-1.52,7.95-2.71,12.17-2.71
		s3.89,1.86,7.95,2.03c4.06,0.17,11.83-1.69,14.71-0.34c2.87,1.35,3.89,3.89,9.64,3.72c5.75-0.17,12.17-1.01,16.57-1.69
		s7.1,2.2,13.69,2.2c6.59,0,15.89,0.68,23.33,0.34c7.44-0.34,8.79,1.52,10.14,2.2c1.35,0.68,5.07-0.34,7.27,1.35
		c2.2,1.69,2.87,2.71,1.52,4.06s-9.13,3.38-18.26,2.87c-9.13-0.51-14.71-2.87-16.91-1.52c-2.2,1.35-0.51,3.21-6.59,3.04
		c-6.09-0.17-33.47,2.56-38.89,0.01s-3.89-4.07-8.79-3.22s-11.16,4.24-16.74,4.32c-5.58,0.08-32.97-1.61-36.52-1.78
		c-3.55-0.17-0.17,1.01-7.44,1.01c-7.27,0-28.91-1.86-33.64-2.37S562.17,160.77,560.31,155.02z"/>
	<path class="st12" d="M140.38-1.9h397.64c0,0,2.37,3.31-9.47,8.04c-11.83,4.73-42.6,5.07-50.38,2.71s-9.47-4.66-9.47-4.66
		s1.69,7.7-8.12,9.73s-45.65,1.69-57.82,0s-30.43-8.34-33.81-7.21c-3.38,1.12-3.38,3.83-7.44,5.86c-4.06,2.03-21.45,5.07-22.22,4.73
		s10.39,3.38,11.74,5.41c1.35,2.03,5.75,5.41,5.75,5.41s13.19-4.73,21.98-2.71c8.79,2.03,33.47,8.12,36.18,10.82
		s5.75,1.69,10.48,3.38s10.14,5.07,6.09,7.78c-4.06,2.71-16.23,9.13-21.64,8.79s-48.35,2.05-62.55,0.01s-14.88-3.73-19.61-0.69
		s-16.23,10.48-48.01,11.83c-31.78,1.35-48.01-8.45-56.13-8.45c-8.12,0-23.67,6.09-33.47,6.09s-32.8-3.72-39.9-5.41
		c-7.1-1.69-16.98-0.51-16.98-0.51V16.28c0,0,10.38-1.69,17.48,1.69c7.1,3.38,17.75,5.07,19.61,4.06c1.86-1.01,5.24-5.92,9.47-7.44
		c4.23-1.52,12.68-4.06,12.68-4.06s-20.29-0.17-24.51-1.52s-10.31,0.34-15.55,0.34c-5.24,0-10.14-2.54-10.99-5.92
		C140.55,0.05,140.38-1.9,140.38-1.9z"/>
	<path class="st12" d="M-2.08,202.43c0,0,14.39-0.51,18.7,4.82c4.31,5.33,9.38,11.41,13.95,11.16c4.56-0.25,16.23,0,20.8,2.03
		s6.09,6.34,10.14,9.64c4.06,3.3,7.35,2.54,13.95,1.52c6.59-1.01,30.94-6.09,39.56-3.3c8.62,2.79,11.16,6.59,19.53,8.62
		c8.37,2.03,25.36,4.06,34.74,4.56c9.38,0.51,10.14,1.78,11.16,4.06s2.79,5.58-3.3,5.83c-6.09,0.25-8.62-1.78-18.26,2.28
		c-9.64,4.06-16.99,6.59-24.35,3.55c-7.35-3.04-13.95-1.63-15.72,1.34c-1.78,2.97-5.58,8.8-10.4,7.53
		c-4.82-1.27,0.76,0.36-11.16,0.18s-20.54-3.73-30.69-3.98s-27.13-0.76-31.7,2.54c-4.56,3.3-19.27,4.06-23.58,4.06
		s-13.38,5.07-13.38,5.07V202.43z"/>
	<path class="st12" d="M143.76,283.16c-0.85-4.4,10.99-4.06,15.05-6.09c4.06-2.03,2.54-4.9,7.95-5.41s7.78-1.01,18.26-1.18
		c10.48-0.17,18.94-6.09,26.37-9.47c7.44-3.38,10.82-4.06,18.09,0c7.27,4.06,8.79,5.92,13.53,3.72s0.85-4.23,8.45-1.35
		c7.61,2.87,12.51,5.41,17.08,5.41s8.79,0.42,9.13,1.9c0.34,1.48-0.51,3.17-6.42,3.26c-5.92,0.08-6.76-1.44-10.99,0
		s-4.73,4.48-8.79,4.31s-5.24-3.21-9.3-2.54c-4.06,0.68-2.87,1.01-8.28,4.4c-5.41,3.38-4.06,2.03-12.51,0.85
		c-8.45-1.18-15.38,1.01-27.73,0.68c-12.34-0.34-15.72-1.86-25.36-0.17c-9.64,1.69-12.85,3.72-17.24,3.21
		C146.64,284.18,143.76,283.16,143.76,283.16z"/>
	<path class="st12" d="M801.73,48.1c0,0-13.41,2.79-17.21,1.27s-9.64-4.56-20.03-4.56s-8.62-4.31-14.2,0s-10.65,5.07-13.69,6.09
		c-3.04,1.01-11.67,6.34-21.3,8.12s-12.68,12.17-16.74,13.19c-4.06,1.01-4.56,4.31-13.44,3.8s-18.6,6.59-23.37,8.12
		c-4.77,1.52-10.1,8.12-14.16,7.1c-4.06-1.01-11.92,1.01-14.96,3.55c-3.04,2.54-8.88,18.01-5.83,21.05
		c3.04,3.04,7.35,4.82,14.2,6.34c6.85,1.52,5.33,6.09,16.48,7.35c11.16,1.27,13.69,1.52,16.99-1.01c3.3-2.54,4.56-4.31,14.71-3.04
		s11.92-1.01,15.72-2.54c3.8-1.52,6.09-2.28,14.71-1.01s10.14,5.58,14.71-1.27s0.51-10.65,9.13-11.92s12.68-3.04,20.8-1.27
		s10.07,1.52,16.48,0.51s7.86-3.3,10.14,0.76c2.28,4.06,7.79,14.71,2.03,15.22c-5.76,0.51-7.61-3.8-14.46-0.25
		c-6.85,3.55-8.9,5.33-15.23,5.33s-13.68,5.33-4.81,5.33s16.48,2.79,23.33,3.8c6.85,1.01,7.9-2.79,13.95-2.28
		c6.05,0.51,6.05-1.52,6.05-1.52V48.1z"/>
</g>
<g id="Layer_4">
	<path class="st13" d="M-2.08,126.46c0,0,16.17,17.24,20.99,15.47c4.82-1.78,6.34-6.34,9.13-14.46s3.8-23.33,3.8-23.33l7.86,15.22
		c0,0-5.58,14.97-8.12,22.7c-2.54,7.73-4.56,9-3.3,17.62c1.27,8.62,13.95,50.72,16.99,55.03c3.04,4.31,6.09,2.54,8.88,0
		c2.79-2.54,26.88-41.59,28.91-47.17c2.03-5.58,2.79-59.85,2.79-59.85L98,111.24c0,0-8.09,41.84-6.82,46.41
		c1.27,4.56,3.24,3.8,6.82,1.52c3.58-2.28,33.76-40.32,33.76-40.32l8.37,1.01c0,0-30.65,40.11-37.03,46.92
		c-16.57,17.67-32.71,42.6-49.2,68.22c-4.26,6.62-55.98,100.93-55.98,100.93v-42.86c0,0,17.43-20.54,22.51-32.71
		s11.67-25.87,10.14-44.13s-5.83-41.21-12.93-52.37s-19.72-17.88-19.72-17.88V126.46z"/>
	<path class="st14" d="M248.16,46.32c3.93-2.28,17.12-3.04,20.03-3.04s-3.17,5.45-8.37,8.88c-5.2,3.42-8.12,1.52-10.78-0.89
		C246.39,48.86,248.16,46.32,248.16,46.32z"/>
	<path class="st14" d="M55.51,132.55c-8.17,0-0.68,10.48,0,16.91s5.75-3.38,6.76-7.1C63.29,138.63,62.95,132.55,55.51,132.55z"/>
	<path class="st14" d="M-2.08-1.9h264.69c0,0-0.51,19.32-5.33,27.18s-15.98,18.51-15.98,18.51s0.6,18.9-9.89,28.15
		c-18.68,16.48-30.18,12.68-45.65,16.48s-16.99,14.58-25.87,23.71c-7.11,7.31-16.61,14.2-51.48,11.29
		c-29.09-2.43-34.24-16.23-36.01-16.48c-1.78-0.25,3.01,5.51-0.76,9.89c-7.1,8.25-20.48,9.51-28.34,7.34s-13.5-11.9-21.24-25.34
		c-5.5-9.56-24.16-14.84-24.16-14.84V-1.9z"/>
	<path class="st15" d="M197.86-1.9c0,0,4.06,20.16-22.65,49.24s-46.36,29.81-60.92,30.99c-37.05,3-46.94-33.27-75.86-45.54
		C25.6,27.34-2.08,27.05-2.08,27.05V-1.9H197.86z"/>
	<path class="st16" d="M801.73,873.01h-293.1c0,0-9.44-21.47-1.41-32.39c8.04-10.92,21.12-14.63,25.76-16.28
		c4.64-1.65,10.41-2.16,13.19-9.37c2.78-7.21,0.86-19.51,11.64-21.57c10.78-2.06,19.44,0.82,27.33,1.37
		c7.9,0.55,10.03,1.03,15.04-4.46c5.01-5.49,6.04-24.59,38.39-27.27c32.35-2.68,31.11,5.15,42.03-1.44
		c10.92-6.59,5.77-11.74,18.13-16.28c12.36-4.53,10.92,2.47,19.99-3.5s-5.7-20.47,14.49-29.12c20.19-8.65,31.87-5.63,39.29-3.57
		s10.29,4.81,17.37,3.71c7.08-1.1,11.86-1.92,11.86-1.92V873.01z"/>
	<path class="st17" d="M612.03,873.01c0,0,187.15,0,189.68-0.01c0.02-2.32,0-80.79,0-80.79s-11.53-22.47-26.05-7.94
		c-14.53,14.53-12.67,12.05-15.93,15.32c-3.26,3.26-10.16,9.27-27.33,11.47c-10.5,1.34-16.15-6.36-35.3-2.82
		c-13.74,2.54-16,10.37-19.23,15.8s-7.35,11.81-25.82,16.14s-21.98,6.87-28.59,11.61C613.4,858.98,612.03,872.39,612.03,873.01z"/>
	<path class="st8" d="M788.32,820.63c-1.65-0.41-0.2-4.09,0.15-7.57c0.36-3.55,0.52-12.17-0.17-16.29
		c-0.53-3.18-2.12-11.57-4.96-17.14c-1.55,0.34-3.17,1.05-4.84,2.23c1.86,2.26,3.64,4.81,4.2,6.89c1.71,6.27,1.97,9.45,0.52,11.32
		c-2.42,3.11-9.2-1.1-13.46-3.85c-1.26-0.81-2.43-1.77-3.47-2.72c-1.47,1.41-2.44,2.31-3.16,2.96c1.4,1.4,3.21,2.88,5.51,4.14
		c6.22,3.41,11.14,4.41,13.34,4.55c2.2,0.14,1.65,9.62,1.1,12.91c-0.55,3.3-2.66,8.93-8.2,13.74s-17.08,16.48-22.43,18.27
		c-5.36,1.79-7.28,1.92-10.99-3.57c-3.71-5.49-11.5-15.21-12.74-19.06c-1.02-3.17,3.07-10.65,6.54-16.8
		c-0.92,0.15-1.87,0.29-2.86,0.42c-1.23,0.16-2.4,0.19-3.53,0.13c-0.54,0.94-1.1,1.9-1.69,2.86c-3.09,5.05-5.46,7.73-7.73,0.72
		c-0.25-0.78-1.15-3.54-1.97-6.07c-1.95-0.49-4.06-0.92-6.46-1.17c1.4,4.84,4.22,13.74,7.71,19.91c6.7,11.85,13.6,19.16,16.28,24.42
		c2.68,5.25,5.56,14.01,5.56,17.1c0,2.36,0,3.48,0,3.88c2.71,0,5.37,0,7.98,0c-0.3-1.02-1.64-6.38,1.7-10.47
		c3.71-4.53,14.07-12.26,22.77-21.22c6.7-6.9,12.38-14.15,16.85-16.48c3.63-1.9,9.19-3.97,11.15-4.69c0.01-1.24,0.01-2.47,0.02-3.67
		C798.5,817.36,789.72,820.99,788.32,820.63z"/>
	<path class="st8" d="M668.14,853.7c3.09,3.61,3.98,19.31,3.98,19.31h7.78c0,0-3.31-17.86-3.21-21.06
		c0.1-3.19,2.68-14.11,2.47-17.51c-0.12-1.99-1.26-5.98-2.19-8.95c-0.99,1.58-2.15,3.22-3.78,4.84c0.46,1.35,0.88,2.78,1.13,4.11
		c0.82,4.33-0.31,8.86-1.85,10.82c-1.55,1.96-3.4,2.58-5.87,0.82c-1.56-1.11-4.85-5.18-7.06-8.02c-1.76,0.6-3.69,1.17-5.84,1.71
		C657.86,843.61,665.88,851.07,668.14,853.7z"/>
	<path class="st16" d="M714.1,733.85c1.14-0.49,2.23-1.72,2.34-3.19c0.1-1.48,1.13-4.81-0.82-7.04s-6.66-4.81-6.18-3.67
		s1.13,3.16,0.72,6.18s-0.41,6.22,0.82,7.25S713.13,734.27,714.1,733.85z"/>
	<path class="st16" d="M544.21,808.51c-0.67-3.4-3.3-4.26-5.91-3.91s-10.1,4.33-11.19,6.18s1.18,2.48,7.16,2.42
		c5.98-0.07,9,0.85,9.48-1.21S544.34,809.17,544.21,808.51z"/>
	<path class="st15" d="M54.92,873.01c0-1.23,55.28-72.23,65.43-78.83s41.34-24.85,48.44-24.35c7.1,0.51,11.74,3.3,18.04,9.64
		c6.31,6.34,10.62,6.34,11.12,10.65s-9.93,13.79-16.48,25.87c-6.56,12.07-41.59,30.69-42.86,36.26c-1.27,5.58-10.4,20.75-10.4,20.75
		H54.92z"/>
	<path class="st17" d="M-2.08,657.02c0,0,9.76-24.4,16.79-36.72s18.5-23.69,19.43-24.4c0.93-0.71-3.33,18.95-2.41,27.48
		c0.93,8.53,9.44,46.19,0.93,71.54s-34.73,89.54-34.73,89.54V657.02z"/>
	<path class="st17" d="M115.78,873.01c0,0,15.98-26.84,41.59-39.01c25.61-12.17,44.79-11.06,59.09-17.37
		c20.66-9.12,50.05-27.6,46.62-18.81c-2.89,7.43-27.6,38.71-32.68,46.57s-6.09,8.75-6.09,8.75l-2.79,4.56c0,0-3.42,5.83-5.83,9.26
		c-2.41,3.42-4.82,6.04-4.82,6.04H115.78z"/>
	<path class="st17" d="M-2.08,847.36c0,0,38.79-83.86,52.75-104.82c13.97-20.96,48.45-43.28,57.92-56.13
		c9.47-12.85,16.91-29.25,18.09-27.05s-1.01,19.95,0,28.4c1.01,8.45,0,35.33-7.1,51.4c-7.1,16.06-96.54,133.86-96.54,133.86H-2.08
		V847.36z"/>
	<path class="st15" d="M-2.08,761.72c0,0,19.72-44.63,29.61-60.86c9.89-16.23,15.72-23.08,15.72-23.08s4.48-0.68,6.68-0.51
		c2.2,0.17,6.59,1.1,6.76,0.34c0.17-0.76-2.23-3.13-4.14-4.4c-1.91-1.27-5.92-2.45-5.92-2.45s10.69-11.12,13.74-16.31
		c3.04-5.2,17.24-11.54,25.23-15.09c7.99-3.55,10.52-9.26,12.3-8.5s-4.18,20.41-6.72,26.37c-2.54,5.96-3.93,11.54-4.69,20.03
		c-0.76,8.5,1.48,22.15-7.48,38.55c-8.96,16.4-23.81,38.5-32.63,54.01c-12.41,21.83-19.97,47.28-35.5,82.6
		C5.22,865.3-2.08,873.01-2.08,873.01V761.72z"/>
	<path class="st16" d="M6.48,873.01c0.76-1.23,14.46-28.61,25.61-40.28c11.16-11.67,36.26-43.11,43.87-54.02
		c7.61-10.9,24.35-34.24,41.08-39.81s36.01-16.99,38.04-16.23c2.03,0.76-7.86,13.44-12.68,26.37c-4.82,12.93-2.79,34.49-19.78,56.81
		c-16.99,22.32-36.01,32.97-44.89,45.14c-8.88,12.17-15.26,22.02-15.26,22.02H6.48z"/>
	<path class="st16" d="M168.98,769.83c0.01,0.94,4.44,3.56,1.95,8.38c-1.28,2.48-15.33,30.69-20.15,37.53
		c-4.82,6.85-11.67,34.24-7.35,37.53c0,0,18.77-20.8,22.32-24.35s15.98-11.92,20.16-15.22c4.18-3.3,10.78-11.49,13.06-15.89
		c2.28-4.4-0.7-9.22-2.36-10.6c-1.66-1.39-5.6-3.89-7.56-5.68s-7.91-7.13-10.23-8.66C174.84,770.25,168.98,769.83,168.98,769.83z"/>
	<g>
		<path class="st17" d="M771.71,248.6c-1.54,0.02-3.05,14.29-3.77,18.67c-0.73,4.38-3.28,21.28-1.01,22.68s9.95-0.66,10.16-2.9
			c0.46-4.92-0.28-13.2-1.55-21.48S772.29,248.59,771.71,248.6z"/>
		<path class="st17" d="M669.23,279.35c-1.25,0.03-2.55,14.3-3.16,18.68s-2.76,21.29-0.92,22.68c1.84,1.39,8.11-0.7,8.3-2.95
			c0.4-4.93-0.17-13.19-1.17-21.47C671.27,288.01,669.7,279.34,669.23,279.35z"/>
		<path class="st17" d="M653.87,290.78c1.25,0.03,2.55,14.3,3.16,18.68s2.76,21.29,0.92,22.68c-1.84,1.39-8.11-0.7-8.3-2.95
			c-0.4-4.93,0.17-13.19,1.17-21.47C651.82,299.44,653.4,290.76,653.87,290.78z"/>
		<path class="st18" d="M801.73,273.12c0,0-17.46,5.11-26.61,5.38s-19.65,2.96-23.15,4.04c-3.5,1.08-4.84,7.27-13.46,8.88
			c-8.61,1.61-12.92,4.31-21.53,5.92s-9.42,7.27-16.15,7.8c-6.73,0.54-12.92,4.22-16.69,6.1c-3.77,1.88-16.15,3.05-18.12,2.87
			s19.74,49.8,21.35,49.08c1.61-0.72,88.28,17.58,88.28,17.58h26.07V273.12z"/>
		<polygon class="st12" points="801.73,277.38 777.83,277.38 771.73,281.07 762.11,281.07 762.11,294.93 739.6,295.04 
			735.44,295.76 709.62,304.22 709.73,320.89 708.34,320.89 708.55,332.27 681.45,332.53 675,350.14 659.54,368.09 801.73,368.25 		
			"/>
		<rect x="682.22" y="322.02" class="st12" width="20.04" height="12.83"/>
		<rect x="739.72" y="288.97" class="st12" width="19.41" height="8.53"/>
		<rect x="740.41" y="279.35" class="st12" width="17.81" height="11.85"/>
		<rect x="780.88" y="270.63" class="st12" width="16.58" height="10.27"/>
		<rect x="781.31" y="262.38" class="st12" width="15.72" height="10.91"/>
		<path class="st12" d="M702.28,322.26h-20.07c-0.64,0-1.15-0.52-1.15-1.15v-0.4c0-0.64,0.52-1.15,1.15-1.15h20.07
			c0.64,0,1.15,0.52,1.15,1.15v0.4C703.43,321.74,702.92,322.26,702.28,322.26z"/>
		<path class="st12" d="M702.72,320.91h-20.96v-1.12c0-3.57,2.89-6.46,6.46-6.46h8.04c3.57,0,6.46,2.89,6.46,6.46V320.91z"/>
		<rect x="683.16" y="302.63" class="st12" width="18.21" height="15.84"/>
		<path class="st19" d="M694.16,295.44h-3.78v-0.99c0-0.89,0.72-1.61,1.61-1.61h0.56c0.89,0,1.61,0.72,1.61,1.61V295.44z"/>
		<path class="st19" d="M694.04,294.75h-3.54c-3.71,0-6.72,3.01-6.72,6.72v1.17h16.97v-1.17
			C700.75,297.76,697.75,294.75,694.04,294.75z"/>
		<g>
			<g>
				<rect x="692.05" y="288.75" class="st19" width="0.44" height="4.51"/>
				<rect x="690.62" y="290.72" class="st19" width="3.31" height="0.34"/>
			</g>
		</g>
		<g>
			<g>
				<path class="st19" d="M686.67,303.65h-0.52c-0.83,0-1.5,0.67-1.5,1.5v7.39h3.52v-7.39C688.17,304.32,687.5,303.65,686.67,303.65
					z"/>
				<path class="st19" d="M692.53,303.65h-0.52c-0.83,0-1.5,0.67-1.5,1.5v7.39h3.52v-7.39
					C694.03,304.32,693.36,303.65,692.53,303.65z"/>
				<path class="st19" d="M698.39,303.65h-0.52c-0.83,0-1.5,0.67-1.5,1.5v7.39h3.52v-7.39
					C699.89,304.32,699.22,303.65,698.39,303.65z"/>
			</g>
		</g>
		<path class="st17" d="M785.99,389.3c-0.67-1.21-8.61-7.94-10.5-17.36c-1.88-9.42,2.83-40.24,6.77-56.92s3.93-16.24,5.47-6.51
			c1.53,9.74,4.53,40.06,5.63,52.26C794.47,372.97,785.99,389.3,785.99,389.3z"/>
		<path class="st17" d="M756.62,329.91c-2.62,20.86-3.84,25.91-2.8,34.52c1.03,8.61,8.62,7.27,9.87,4.22
			c1.25-3.05,1.34-12.97,0.07-29.45c-1.28-16.69-2.22-31.17-4.02-28.81C758.36,312.19,756.62,329.91,756.62,329.91z"/>
		<path class="st15" d="M702.05,342.42c4.07,3.34-0.54,5.11,1.08,8.48s3.1,5.65,10.36,3.5s20.18-6.86,24.89-5.92
			s1.95,4.58,3.97,7.27c2.02,2.69,2.49-0.94,7.47-1.21c4.98-0.27,7.13,0.13,11.03,3.23s5.25,5.79,11.03,5.11
			c5.79-0.67,14.84-4.98,22.34-1.75s7.5,3.23,7.5,3.23v60.46c0,0-8.06-3.23-15.49-3.23c-7.44,0-12.1-2.51-19.64-2.87
			c-7.54-0.36-7.18-0.18-10.41-0.9c-3.23-0.72-10.07-4.9-20.28-6.97c-10.76-2.18-10.58,1.41-17.94-1.29s-11.57-8.43-14.85-9.15
			c-3.27-0.72-9.55-0.9-14.22-2.69s-10.94-4.66-16.69-7.36c-5.74-2.69-17.04-2.96-21.53-4.75c-4.49-1.79-9.15-5.38-14.26-10.14
			c-3.04-2.83-18.5-8.84-18.95-12.5c-0.42-3.47-7.28-6.06-10.82-7.27c-2.42-0.83-3.19-0.27-8.98-0.76
			c-6.91-0.59-67.35,1.69-65.24,0.66c1.38-0.67,15.21-5.9,23.67-5.23c4.7,0.38,13.96-5.81,19.61-1.27c4.73,3.8,14.7-1.77,15.81-2.03
			c4.93-1.17,13.23,2.37,14.94-0.5c1.7-2.87,4.75-8.07,10.59-9.24s8.37-1.86,8.79-3.5c0.38-1.48,0.09-6.37,2.33-7.54
			c2.24-1.17,8.34-2.67,12.18-3.14c3.84-0.47,5.52-3.9,6.66-5.65c1.14-1.75,3.77-5.58,7.67-5.79c3.9-0.2,9.29,0.07,10.9,1.55
			c1.61,1.48,6.37,2.89,10.41,2.35c4.04-0.54,4.97,1.03,8.65,1.48c3.68,0.45,0.36,3.87,0,6.47c-0.36,2.6,0,5.41,2.75,8.12
			c2.49,2.45-1.8,5.91-1.08,8.52c0.72,2.6-0.27,4.22,5.11,2.96S700.82,341.41,702.05,342.42z"/>
		<g>
			<g>
				<rect x="784.27" y="266.39" class="st19" width="2.59" height="4.24"/>
				<rect x="791.48" y="266.39" class="st19" width="2.59" height="4.24"/>
				<rect x="787.33" y="266.39" class="st19" width="3.68" height="4.24"/>
			</g>
		</g>
		<g>
			<g>
				<rect x="781.92" y="272.24" class="st19" width="1.46" height="2.47"/>
				<rect x="785.18" y="272.24" class="st19" width="1.46" height="2.47"/>
				<rect x="788.44" y="272.24" class="st19" width="1.46" height="2.47"/>
				<rect x="791.7" y="272.24" class="st19" width="1.46" height="2.47"/>
				<rect x="794.96" y="272.24" class="st19" width="1.46" height="2.47"/>
			</g>
		</g>
		<path class="st19" d="M791.01,265.78h-3.74v-0.28c0-0.88,0.71-1.59,1.59-1.59h0.57c0.88,0,1.59,0.71,1.59,1.59V265.78z"/>
		<path class="st19" d="M790.36,255.27h-2.17c-3.35,0-6.06,2.71-6.06,6.06v1.05h14.29v-1.05
			C796.42,257.98,793.71,255.27,790.36,255.27z"/>
		<path class="st19" d="M750.6,271.34h-2.42c-3.85,0-6.96,3.12-6.96,6.96v1.8h16.35v-1.8C757.56,274.46,754.44,271.34,750.6,271.34z
			"/>
		<rect x="749.13" y="269.5" class="st19" width="0.69" height="2.36"/>
		<path class="st19" d="M727.76,290.23h-5.01c-6.6,0-11.95,5.35-11.95,11.95v2.08h28.92v-2.08
			C739.72,295.58,734.37,290.23,727.76,290.23z"/>
		<g>
			<g>
				<path class="st19" d="M744.57,289.07h-2.51v-5.32c0-0.59,0.48-1.07,1.07-1.07h0.37c0.59,0,1.07,0.48,1.07,1.07V289.07z"/>
				<path class="st19" d="M750.56,289.07h-2.51v-5.32c0-0.59,0.48-1.07,1.07-1.07h0.37c0.59,0,1.07,0.48,1.07,1.07V289.07z"/>
				<path class="st19" d="M756.56,289.07h-2.51v-5.32c0-0.59,0.48-1.07,1.07-1.07h0.37c0.59,0,1.07,0.48,1.07,1.07V289.07z"/>
			</g>
		</g>
		<path class="st19" d="M716.73,320.91h-4.09v-9.17c0-0.96,0.78-1.74,1.74-1.74h0.61c0.96,0,1.74,0.78,1.74,1.74V320.91z"/>
		<path class="st19" d="M727.37,320.91h-4.09v-9.17c0-0.96,0.78-1.74,1.74-1.74h0.61c0.96,0,1.74,0.78,1.74,1.74V320.91z"/>
		<path class="st19" d="M738.02,320.91h-4.09v-9.17c0-0.96,0.78-1.74,1.74-1.74h0.61c0.96,0,1.74,0.78,1.74,1.74V320.91z"/>
		<path class="st19" d="M791.32,297.25h-4.09v-9.17c0-0.96,0.78-1.74,1.74-1.74h0.61c0.96,0,1.74,0.78,1.74,1.74V297.25z"/>
		<path class="st19" d="M771.91,309.89h-4.09v-4.05c0-0.96,0.78-1.74,1.74-1.74h0.61c0.96,0,1.74,0.78,1.74,1.74V309.89z"/>
		<path class="st19" d="M771.91,331.33h-4.09v-4.05c0-0.96,0.78-1.74,1.74-1.74h0.61c0.96,0,1.74,0.78,1.74,1.74V331.33z"/>
	</g>
	<path class="st20" d="M-2.08,805.85c0-0.76,23.77-47.89,30.11-59.07s16.23-34.36,24.09-41.92s16.06-18.88,17.84-28.01
		c1.78-9.13,6.78-20.97,12.28-26.8c10.27-10.88,1.39-0.35-1.32,3.64c-1.47,2.16-6.98,9.64-7.74,14.2s-2.03,12.43-5.07,18.01
		s-11.33,18.9-14.88,20.96c-3.55,2.06-21.77,37.74-23.8,41.42s-31.51,63.91-31.51,63.91V805.85"/>
	<path class="st15" d="M31.08,873.01c0,0,14.14-21.26,20.41-29.12c6.27-7.86,17.5-21.05,28.15-28.4
		c10.65-7.35,23.45-24.65,29.42-32.97c7.64-10.66,19.65-31.45,23.97-35.5c4.31-4.06-28.91,46.15-37.28,55.28
		c-8.37,9.13-28.4,26.4-35.5,33.87s-24.09,36.38-24.09,36.38L31.08,873.01z"/>
</g>
<g id="Layer_5">
	<g>
		<path class="st12" d="M553.38,389.31c0,0,0.74,3.74,2.13,4.07s5.3-0.85,8.44-1.04c3.14-0.19,4.59-0.14,4.59-0.14l0.46-2.27
			c0,0-7.92-0.63-9.97-0.79C556.99,388.99,553.38,389.31,553.38,389.31z"/>
		<path class="st12" d="M554.23,386.63c3.16,0.32,6.41,0.28,10.12,1.05c0,0-0.35-5.73,0.12-11.7c0.55-7.01,1.93-14.44,1.84-14.44
			c-1.56,0-8.07,10.31-9.49,13.78C554.39,381.25,554.23,386.63,554.23,386.63z"/>
	</g>
	<g>
		<line class="st21" x1="147.39" y1="334.99" x2="146.42" y2="421.01"/>
		<path class="st19" d="M120.65,371.6c-4.14,12.41-5.66,30.78-4.32,38.98s2.08,9.47,2.08,9.47h28.01c0,0-13.25-18.14-8.94-44.78
			c4.32-26.64,9.39-37.34,9.42-38.98C146.94,334.66,126.31,354.62,120.65,371.6z"/>
		<path class="st19" d="M160.31,329.18c-0.02-0.33-13.41-4.1-13.41-4.1s0,7.46,0,11.22C146.91,336.86,160.46,331.23,160.31,329.18z"
			/>
		<path class="st12" d="M147.35,338.29l-0.91,79.12c0,0,36.13,0.32,36.46-0.26C184.65,414.12,150.17,337.42,147.35,338.29z"/>
		<path class="st6" d="M113.21,420.11l74.03-0.83c0,0-0.3,2.61-1.04,3.81c-0.74,1.19-1.94,3.43-1.94,3.43s-23.98-1.34-37.68-0.74
			c-13.7,0.6-29.19,2.23-29.19,2.23s-1.54-2.02-2.78-4.36C113.36,421.3,113.21,420.11,113.21,420.11z"/>
	</g>
</g>
<g id="Layer_6">
	<path class="st22" d="M252.88,476.24c0,0,1.13,16.57,1.27,22.09s3.82,9.63,0,10.62s-4.09,1.85-4.11,4.25s-2.83,21.8-2.83,21.8
		s-20.81-10.76-20.96-11.75c-0.14-0.99-6.8-42.19-5.52-42.34C222.01,480.77,252.88,476.24,252.88,476.24z"/>
	<path class="st22" d="M187.32,602.11l3.54,42.34c0,0,21.1,11.61,24.07,10.34c2.97-1.27,26.19-24.35,26.62-27.33
		c0.42-2.97,4.67-40.07,4.39-40.78s-11.47-15.57-11.47-15.57L187.32,602.11z"/>
	<path class="st23" d="M250.19,634.88c1.13-2.19,27.46-39.44,40.26-42.91c13.07-3.55,16.19,1.65,17.65,7.31
		c2.09,8.08,0.42,24.78-0.99,31.43c-1.42,6.65-21.43,70.79-23.69,75.7c-2.27,4.91-5.12,22.91-16.94,31.55
		c-11.82,8.64-28.46,5.24-28.46,5.24l6.58-15.36l15.43-16.64L250.19,634.88z"/>
	<path class="st22" d="M175,546.75c0,0-6.23-0.14-10.05,3.68c-3.82,3.82-6.37,7.65-4.39,31.01c1.98,23.36,13.03,85.9,13.03,85.9
		l12.04-28.7c0,0,0.28-22.51,0-23.5c-0.28-0.99-2.27-26.76-2.27-26.76L175,546.75z"/>
	<path class="st22" d="M254.15,540.06c0,0,10.19,1.07,14.35,6.68c4.15,5.62,23.6,83.82,24.31,87.08s19.54,33.84,22.65,39.22
		s27.47,47.78,29.31,49.66c1.84,1.88,15.86,7.26,15.86,7.26s-5.66,13.49-6.09,13.9c-0.42,0.4-17.13,3.09-17.13,3.09
		s-5.52-14.75-10.34-21.32c-4.81-6.57-52.81-65.47-58.19-75.95s-18.97-61.73-18.41-63.43c0.57-1.7-4.52-38.51-4.52-38.51
		L254.15,540.06z"/>
	<path class="st24" d="M179.39,596.92c0,0,5.38,19.78,2.12,41.3c-3.03,20.02-15.11,30.81-17.98,43.85
		c-3.66,16.64,0.1,37.75,9.28,47.48c6.36,6.74,10.55,10.38,18.88,11.49c10.98,1.46,15.56,0.12,24.95,0.68
		c9.39,0.57,18.85,2.83,29.32,2.83s23.07-9.77,25.9-19.68c2.83-9.91-0.42-33.56-2.97-43.18s-13.97-48.14-13.21-61.54
		c0.76-13.4,2.45-16.24,2.45-16.24s-3.96-11.7-5.47-21.71s-1.7-18.88-1.7-18.88l-12.08,18.5c0,0-3.59,28.79-6.8,39.55
		s-9.44,20.27-17.18,22.14c-7.74,1.88-17.21-2.1-20.23-9.27s-3.56-32.6-3.56-32.6L179.39,596.92z"/>
	<path class="st25" d="M255.28,458.63c7.05,6.62,9.06,12.37,7.08,17.6c-1.98,5.24-9.53,13.73-15.01,18.55
		c-5.47,4.81-8.59,16.05-5.57,22.94c3.02,6.89,14.77,9.77,18.17,20.67s0.46,21.37-4.07,26.24c-4.53,4.87-10.13,4.72-11.26,7.83
		c-1.13,3.11-0.8,7.94-5.29,16.24c-7.55,13.97-46.35,40.02-70.89,0.09c-6.33-10.3-0.57-22.47,1.79-26.34
		c2.36-3.87,4.2-10.48-0.76-23.08s-6.09-22.37,2.12-30.16c8.21-7.79,15.86-10.34,15.72-17.98c-0.14-7.65-4.25-26.57,8.87-34.12
		c13.12-7.55,24.92-6.8,29.54-5.38c4.63,1.42,8.02,0.66,13.4,0.66C244.52,452.4,250.15,453.82,255.28,458.63z"/>
</g>
<g id="Layer_7">
	<path class="st26" d="M479.76,734.28l-6.72,7.39c0,0-25.01-12.94-25.56-17.3c-3.77-30.26-16.71-71.22-16.14-82.83
		c0.57-11.61,18.41-22.65,18.41-22.65l14.16-10.07l7.08,66.43L479.76,734.28z"/>
	<path class="st27" d="M481.83,502.52c0,0,1.7,12.84,0,16.8c-1.7,3.96-9.25,12.65-9.25,12.65s20.77,14.16,22.84,13.21
		c2.08-0.94,20.77-9.06,20.77-9.06l0.94-6.89c0,0-4.15-2.74-5.57-6.23c-1.42-3.49-2.17-24.26-2.17-24.26L481.83,502.52z"/>
	<path class="st27" d="M453.71,614.52c0,0-2.44,32.9-4.89,37.05c-2.45,4.15-59.3,66.07-65.82,72.59
		c-6.51,6.51-8.78,9.77-10.48,12.18c-1.7,2.41-15.01,16.42-20.81,18.12c-5.81,1.7-15.15-3.4-17.13-7.5s5.95-2.55,9.63-5.52
		c3.68-2.97,12.12-9.16,11.04-11.61c-1.08-2.45-4.67-2.41-6.3-2.9s-3.34-3.52-3.76-3.87c-0.42-0.35,2.62-1.23,5.31-1.79
		c2.69-0.57,11.4-5.38,14.94-6.51c3.54-1.13,7.83-5.31,13.31-12.11c5.47-6.8,38.32-51.92,39.08-56.82
		c0.76-4.91,6.99-38.89,6.99-38.89L453.71,614.52z"/>
	<path class="st27" d="M554.7,617.48c0.38,0.77,11.52,36.08,14.35,41.17c2.83,5.1,37.57,59.84,38.89,65.13
		c1.32,5.29-1.98,12.93-3.68,16.05c-1.7,3.11-5.76,8.97-4.34,10.01s5.29-0.66,6.8-2.08s6.32-9.34,11.33-10.67
		c5-1.32,9.44-2.64,14.25,0.28s11.33,12.44,16.42,12.78c5.1,0.34,11.04-2.4,15.2-4.19c4.15-1.79,1.13-4.44-2.64-7.27
		c-3.78-2.83-8.97-10.64-13.21-13.06c-4.25-2.42-12.65-4.68-16.24-7.8c-3.59-3.11-37.85-67.11-39.93-73.91s-13.97-37-13.97-37
		L554.7,617.48z"/>
	<path class="st28" d="M447.6,714.77l-1.51,1.65c0,0-0.05,12.65,5.14,19.16c5.19,6.51,18.03,12.84,26.62,13.12
		c8.59,0.28,27.19-2.08,32.75-2.27c5.57-0.19,27.85,0.38,35.21,1.13s21.8-9.53,26.05-17.75s3.96-22.65,3.96-22.65l-111.43-2.69
		L447.6,714.77z"/>
	<path class="st29" d="M500.51,531.46c-5.62,0.39-21.8-5.66-21.8-5.66s-7.08,1.7-11.19,2.83c-4.11,1.13-17.7,2.55-24.21,7.22
		s-15.57,25.2-17.56,35.4c-1.98,10.19-3.8,40.18-3.11,42c0.68,1.82,6.16,1.04,13.88,2.17c6.58,0.97,13.03,3.07,14.02,3.63
		s2.55,0.19,2.76,1.18c0.21,0.99-5.45,37-5.45,47.1s-1.32,35.68-1.32,42.85s-1.51,6.99,1.13,6.42s39.27-7.55,56.45-7.93
		s65.79,1.32,71.17,3.87s1.68-40.98,1.68-40.98s-6.82-10.29-8.12-13.33c-1.3-3.04-11.52-32.84-11.52-32.84s4.09-4.1,10.03-6.65
		c5.95-2.55,12.87-3.51,13.87-3.38c1,0.13,1.49-0.58,1.42-1.08c-0.07-0.5-13.59-62.68-21.52-72.12
		c-7.93-9.44-41.17-17.55-47.19-15.68C510.66,527.51,514.86,530.46,500.51,531.46z"/>
	<path class="st30" d="M520.24,439.56c5.66,5.58,2.17,13.21,2.64,16.9c0.47,3.68,6.99,10.67,7.55,15.57s3.11,13.12-1.89,20.29
		c-5,7.17-13.59,11.42-20.67,13.31c-7.08,1.89-16.99,2.45-20.86,3.02c-3.87,0.57-8.68-2.83-11.61-7.17
		c-2.93-4.34-3.02-9.16-6.8-14.06c-3.78-4.91-11.23-8.53-8.78-17.65c2.45-9.12,4.72-11.14,10.76-14.91s3.92-14.11,12.46-16.33
		c8.4-2.18,9.39,3.11,14.91,1.89S514.06,433.48,520.24,439.56z"/>
	<path class="st31" d="M480.09,522.34c0,0,5.7,5.2,12.49,5.76c6.8,0.57,16.38,0.05,18.17-0.76c1.79-0.8,2.03-1.79,2.83-1.75
		c1.65,0.08,9.02,0.37,10.29,1.13s-7.69,6.02-11.75,7.63c-4.06,1.6-14.41,1.44-21.63,0.64c-7.22-0.8-18.38-7.03-17.92-7.7
		C474.13,525.04,478.91,523.35,480.09,522.34z"/>
	<path class="st31" d="M554.18,617.48c0.64-0.71,7.79-4.46,11.82-6.02c4.04-1.56,15.04-3.1,15.34-3.04c0.3,0.06,1.15,5.05,1.3,5.87
		c0.14,0.81-0.18,1.02-1.42,1.08s-10.61,2.46-13.92,4.02c-3.3,1.56-10.01,6.42-10.01,6.42L554.18,617.48z"/>
	<path class="st31" d="M455.54,612.99l-2.24,7.24c0,0-2.71-1.47-6.41-2.48c-3.7-1.01-13.09-2.62-17.68-3.02
		c-4.59-0.4-4.3,0.45-6.12-0.73c-1.82-1.18-0.49-7.69-0.49-7.69s8.35,0.33,15.71,1.51C445.67,609,455.54,612.99,455.54,612.99z"/>
</g>
</svg>
